<svg xmlns="http://www.w3.org/2000/svg" width="35.362" height="8.766" viewBox="0 0 35.362 8.766"><g transform="translate(-162.524 -610.617)"><path d="M9.62,6,8.59,7.03l3.346,3.353L8.59,13.736l1.03,1.03L14,10.383Z" transform="translate(153.934 604.617)" fill="#ff9200"/><path d="M9.62,6,8.59,7.03l3.346,3.353L8.59,13.736l1.03,1.03L14,10.383Z" transform="translate(164.161 604.617)" fill="#ff9200"/><path d="M9.62,6,8.59,7.03l3.346,3.353L8.59,13.736l1.03,1.03L14,10.383Z" transform="translate(173.657 604.617)" fill="#ff9200"/><path d="M9.62,6,8.59,7.03l3.346,3.353L8.59,13.736l1.03,1.03L14,10.383Z" transform="translate(183.883 604.617)" fill="#ff9200"/></g></svg>