<svg xmlns="http://www.w3.org/2000/svg" width="25.634" height="21.529" viewBox="0 0 25.634 21.529"><path d="M4.8,8.285,4.453,6.232H3.226a1.642,1.642,0,1,0,0,.821h.531l.205,1.232H3.947L6.07,18.966A2.109,2.109,0,0,0,4.116,20.8a2.058,2.058,0,0,0,2.043,2.262H6.98a2.463,2.463,0,0,0,4.927,0h4.516a2.463,2.463,0,0,0,4.927,0h1.642a.411.411,0,0,0,0-.821H21.206a2.459,2.459,0,0,0-4.639,0h-4.8a2.459,2.459,0,0,0-4.639,0H6.159a1.236,1.236,0,0,1-.913-.408,1.219,1.219,0,0,1-.312-.951,1.287,1.287,0,0,1,1.3-1.1H22.586a2.05,2.05,0,0,0,2.048-2.048V8.285ZM1.642,7.463a.821.821,0,1,1,.821-.821A.822.822,0,0,1,1.642,7.463ZM18.886,21.423a1.642,1.642,0,1,1-1.642,1.642A1.644,1.644,0,0,1,18.886,21.423Zm-9.443,0A1.642,1.642,0,1,1,7.8,23.065,1.644,1.644,0,0,1,9.443,21.423Zm14.37-3.69a1.228,1.228,0,0,1-1.226,1.226H6.906L4.948,9.106H23.813Z" transform="translate(0.5 -4.5)" fill="#ff7474" stroke="#ff7474" stroke-width="1"/></svg>