<svg xmlns="http://www.w3.org/2000/svg" width="32" height="27.333" viewBox="0 0 32 27.333"><g transform="translate(-65 -601.583)"><path d="M20.667,6.833A2.667,2.667,0,1,0,18,4.167,2.675,2.675,0,0,0,20.667,6.833Zm-14,8.667a6.667,6.667,0,1,0,0,13.333,6.667,6.667,0,1,0,0-13.333Zm0,11.333a4.667,4.667,0,1,1,0-9.333,4.667,4.667,0,1,1,0,9.333ZM14.4,13.5l3.2-3.2,1.067,1.067a9.341,9.341,0,0,0,6.8,2.8V11.5a6.624,6.624,0,0,1-4.8-2L18.133,6.967A3.269,3.269,0,0,0,16,6.167a2.237,2.237,0,0,0-1.867.8L10.4,10.7a2.632,2.632,0,0,0-.8,1.867,2.237,2.237,0,0,0,.8,1.867l4.267,3.733v6.667h2.667V16.567Zm10.933,2A6.667,6.667,0,1,0,32,22.167,6.6,6.6,0,0,0,25.333,15.5Zm0,11.333A4.667,4.667,0,1,1,30,22.167,4.724,4.724,0,0,1,25.333,26.833Z" transform="translate(65 600.083)" fill="#9c9a9a"/><path d="M2,8.36H7.6v.56H2ZM5.315,5.781A.578.578,0,0,0,5.36,5.56a.56.56,0,0,0-1.12,0,.578.578,0,0,0,.045.221,2.523,2.523,0,0,0-2,2.3H7.319A2.523,2.523,0,0,0,5.315,5.781Z" transform="translate(66.2 606.04)"/><path d="M473.978,743h8.434l4.707,4.058v3.531h4.119" transform="translate(-408 -128)" fill="none" stroke="#9c9a9a" stroke-linecap="round" stroke-width="0.5"/></g></svg>