<svg xmlns="http://www.w3.org/2000/svg" width="36" height="34" viewBox="0 0 36 34"><rect width="4.125" height="6.8" transform="translate(26.925 4.887)" fill="#838181"/><rect width="7.275" height="3.683" transform="translate(25.35 1.417)" fill="#9c9a9a"/><path d="M44.8,81.083V96.737H74.2V81.083L59.5,67.2h0C53.8,72.654,50.575,75.7,44.8,81.083Z" transform="translate(-41.65 -62.738)" fill="#b1b0ac"/><path d="M74.275,81.083,59.575,67.2c-2.925,2.692-5.175,4.817-7.425,6.942L44.8,81.083v3.188L59.5,70.387,74.2,84.271V84.7h0V81.083h.075Z" transform="translate(-41.65 -62.738)" fill="#838181"/><path d="M99.517,337.73h-8.85v-8.217a4.316,4.316,0,0,1,4.425-4.179h0a4.314,4.314,0,0,1,4.425,4.179Z" transform="translate(-84.292 -303.73)"/><rect width="11.55" height="9.562" transform="translate(17.85 21.604)" fill="#344a5e"/><g transform="translate(19.05 22.737)"><rect width="3.975" height="7.296" fill="#9c9a9a"/><rect width="3.975" height="7.296" transform="translate(5.175)" fill="#9c9a9a"/></g><path d="M35.325,15.442,19.65.637a2.552,2.552,0,0,0-3.375,0l-15.6,14.8a2.219,2.219,0,0,0,0,3.187,2.552,2.552,0,0,0,3.375,0L18,5.454,31.95,18.629a2.552,2.552,0,0,0,3.375,0A2.219,2.219,0,0,0,35.325,15.442Z" transform="translate(0 0)" fill="#9c9a9a"/></svg>