<svg width="46" height="62" viewBox="0 0 46 62" fill="none" xmlns="http://www.w3.org/2000/svg">
<path d="M23 0C10.317 0 0 10.317 0 23V23.25C0 27.867 1.369 32.327 3.958 36.149L20.611 60.732C21.149 61.526 22.042 62 23 62C23.958 62 24.851 61.526 25.389 60.732L42.042 36.149C44.631 32.327 46 27.867 46 23.25V23C46 10.317 35.683 0 23 0ZM44 23.25C44 27.466 42.75 31.538 40.386 35.028L23.732 59.611C23.402 60.097 22.597 60.097 22.267 59.611L5.614 35.028C3.25 31.538 2 27.466 2 23.25V23C2 11.421 11.421 2 23 2C34.579 2 44 11.421 44 23V23.25Z" fill="#F9A139"/>
<path d="M23 4C12.523 4 4 12.523 4 23C4 33.477 12.523 42 23 42C33.477 42 42 33.477 42 23C42 12.523 33.477 4 23 4ZM23 40C13.626 40 6 32.374 6 23C6 13.626 13.626 6 23 6C32.374 6 40 13.626 40 23C40 32.374 32.374 40 23 40Z" fill="black"/>
<path d="M34 27C34 22.023 30.674 17.812 26.13 16.46C26.667 15.779 27 14.932 27 14C27 11.794 25.206 10 23 10C20.794 10 19 11.794 19 14C19 14.932 19.333 15.779 19.87 16.46C15.326 17.812 12 22.023 12 27V28H8V30H10.22L10.462 30.97C10.907 32.754 12.504 34 14.343 34H31.657C33.496 34 35.093 32.754 35.538 30.97L35.78 30H38V28H34V27ZM21 14C21 12.897 21.897 12 23 12C24.103 12 25 12.897 25 14C25 15.103 24.103 16 23 16C21.897 16 21 15.103 21 14ZM14 27C14 22.037 18.037 18 23 18C27.963 18 32 22.037 32 27V28H14V27ZM33.599 30.485C33.375 31.377 32.577 32 31.657 32H14.343C13.423 32 12.625 31.377 12.402 30.485L12.28 30H33.72L33.599 30.485Z" fill="#FF5151"/>
</svg>
