<svg width="86" height="43" viewBox="0 0 86 43" fill="none" xmlns="http://www.w3.org/2000/svg">
<path d="M7.54095 30.9H9.84096V33.2C9.84096 36.3 12.341 38.9 15.541 38.9H34.841C36.041 38.9 37.241 38.5 38.141 37.8C41.141 38.5 46.541 39.1 56.141 39.1C73.841 39.1 77.141 37.3 77.941 35.7C78.541 34.6 77.841 33.6 77.541 33.2C77.241 32.6 76.741 32.1 76.541 31.8C76.641 31.5 76.741 31.2 76.741 31C78.241 30.6 79.341 29.9 79.441 28.4C79.441 20.1 69.641 14.1 56.141 14.1C49.941 14.1 44.541 15.4 40.541 17.5V14.3C40.541 13.7 40.141 13.3 39.541 13.3H10.841C10.241 13.3 9.84096 13.7 9.84096 14.3V20H7.54095C4.54095 20 2.04095 22.4 2.04095 25.5C2.14095 28.5 4.54095 30.9 7.54095 30.9ZM44.541 18L47.041 22.4C47.241 22.7 47.541 22.9 47.941 22.9C48.141 22.9 48.241 22.9 48.441 22.8C48.941 22.5 49.041 21.9 48.841 21.4L46.541 17.3C48.741 16.7 51.141 16.3 53.841 16.1L56.541 20.8C56.741 21.1 57.041 21.3 57.441 21.3C57.641 21.3 57.741 21.3 57.941 21.2C58.441 20.9 58.541 20.3 58.341 19.8L56.141 16H56.241C59.041 16 61.641 16.3 64.041 16.8L66.841 21.8C67.041 22.1 67.341 22.3 67.741 22.3C67.941 22.3 68.041 22.3 68.241 22.2C68.741 21.9 68.841 21.3 68.641 20.8L66.641 17.6C73.241 19.6 77.441 23.6 77.441 28.3C77.441 28.6 77.141 28.9 76.041 29.1C75.841 29.1 75.641 29.2 75.341 29.2C74.541 29.3 73.341 29.4 71.841 29.4C70.1409 29.4 68.241 29.3 66.041 29.3C63.141 29.2 59.841 29.1 56.241 29.1C52.841 29.1 49.641 29.2 46.841 29.3C45.241 29.3 43.741 29.4 42.441 29.4C41.941 29.4 41.441 29.4 40.941 29.4C40.841 29.4 40.641 29.4 40.541 29.4C39.841 29.4 39.141 29.4 38.541 29.4C37.741 29.4 37.141 29.3 36.641 29.2C36.341 29.2 36.141 29.1 35.941 29.1C35.441 29 34.841 28.8 34.841 28.5C34.841 25.8 36.241 23.4 38.541 21.4C39.141 20.9 39.841 20.4 40.541 20C41.741 19.2 43.041 18.5 44.541 18ZM47.241 33.6L43.541 31.4C44.541 31.4 45.741 31.4 46.941 31.3C48.141 31.3 49.441 31.2 50.741 31.2L47.241 33.6ZM42.041 32.8C41.441 32.8 40.941 32.8 40.541 32.8C39.841 32.8 39.241 32.8 38.841 32.8C38.741 32.8 38.641 32.8 38.541 32.8C37.941 32.8 37.241 32.6 36.941 32.2C36.741 31.9 36.741 31.6 36.741 31.2C37.241 31.3 37.841 31.3 38.541 31.3C38.741 31.3 38.841 31.3 39.041 31.3C39.241 31.3 39.441 31.3 39.641 31.3L40.541 31.8L40.741 31.9L42.741 32.7C42.541 32.8 42.341 32.8 42.041 32.8ZM54.241 31.1C54.941 31.1 55.641 31.1 56.241 31.1C56.941 31.1 57.641 31.1 58.341 31.1C58.441 31.2 58.441 31.3 58.541 31.3L60.941 33H60.141C57.341 33 54.341 32.9 51.641 32.9L54.241 31.1ZM61.841 31.2C63.341 31.2 64.741 31.3 66.041 31.3C67.241 31.3 68.441 31.4 69.441 31.4L65.541 33.8L61.841 31.2ZM74.141 32.2C73.541 32.9 72.541 33.2 71.141 33.2C70.941 33.2 70.641 33.2 70.441 33.2L73.141 31.6C73.241 31.6 73.241 31.5 73.241 31.5C73.741 31.5 74.241 31.5 74.641 31.4C74.541 31.6 74.441 31.9 74.141 32.2ZM56.141 37.1C52.141 37.1 48.941 37 46.441 36.8C43.441 36.6 41.341 36.4 39.841 36.1C38.941 35.9 38.241 35.8 37.741 35.6C36.341 35.2 36.241 34.8 36.141 34.8C36.141 34.7 36.241 34.5 36.341 34.4C36.341 34.3 36.441 34.3 36.441 34.2C36.941 34.5 37.541 34.6 38.241 34.7C38.441 34.7 38.641 34.8 38.941 34.8C39.241 34.8 39.741 34.8 40.341 34.8C41.641 34.8 43.441 34.8 45.341 34.8L46.641 35.6C46.841 35.7 46.941 35.7 47.141 35.7C47.341 35.7 47.541 35.6 47.741 35.5L48.741 34.8C52.041 34.8 56.241 34.9 59.941 34.9H63.741L64.741 35.6C64.941 35.7 65.141 35.8 65.341 35.8C65.541 35.8 65.741 35.8 65.841 35.7L66.941 35C68.741 35 70.141 35 70.941 35C72.841 35 74.2409 34.5 75.341 33.5C75.441 33.7 75.641 33.8 75.741 34C75.741 34.1 75.841 34.2 75.941 34.3C76.041 34.4 76.141 34.6 76.141 34.7C76.141 34.9 75.241 37.1 56.141 37.1ZM11.841 15.4H38.541V18.8C34.941 21.3 32.841 24.6 32.841 28.5C32.841 29.3 33.241 30.3 34.841 30.8C34.741 31.4 34.741 32.1 35.041 32.8C34.941 32.9 34.841 33.1 34.641 33.3C34.441 33.7 33.741 34.6 34.341 35.7C34.541 36.1 34.841 36.5 35.541 36.8C35.341 36.8 35.141 36.9 34.941 36.9H15.541C13.541 36.9 11.841 35.3 11.841 33.2V15.4ZM7.54095 22H9.84096V28.9H7.54095C5.64095 28.9 4.04095 27.3 4.04095 25.4C4.14095 23.6 5.64095 22 7.54095 22Z" fill="#FF5151"/>
<path d="M33.841 9.4C34.441 9.4 34.841 9 34.841 8.4V1.1C34.841 0.5 34.441 0.1 33.841 0.1C33.241 0.1 32.841 0.5 32.841 1.1V8.4C32.841 8.9 33.341 9.4 33.841 9.4Z" fill="black"/>
<path d="M25.141 9.3C25.741 9.3 26.141 8.9 26.141 8.3V1C26.141 0.4 25.741 0 25.141 0C24.541 0 24.141 0.4 24.141 1V8.3C24.141 8.9 24.541 9.3 25.141 9.3Z" fill="black"/>
<path d="M16.541 9.4C17.141 9.4 17.541 9 17.541 8.4V1.1C17.541 0.5 17.141 0.1 16.541 0.1C15.941 0.1 15.541 0.5 15.541 1.1V8.4C15.541 8.9 15.941 9.4 16.541 9.4Z" fill="#F9A139"/>
<path d="M84.841 37.2C84.341 36.9 83.741 37 83.441 37.5L81.241 40.9H3.64095L1.84095 37.3C1.64095 36.8 1.04095 36.6 0.540954 36.9C0.0409541 37.1 -0.159046 37.7 0.140954 38.2L2.24095 42.3C2.44095 42.6 2.74095 42.9 3.14095 42.9H81.841C82.141 42.9 82.541 42.7 82.641 42.4L85.141 38.5C85.441 38.1 85.241 37.5 84.841 37.2Z" fill="#F9A139"/>
</svg>
