<svg xmlns="http://www.w3.org/2000/svg" xmlns:xlink="http://www.w3.org/1999/xlink" width="30.498" height="33.175" viewBox="0 0 30.498 33.175"><defs><linearGradient id="a" x1="1" y1="-0.279" x2="1" y2="1.492" gradientUnits="objectBoundingBox"><stop offset="0" stop-color="#006a23"/><stop offset="1" stop-color="#00a839"/></linearGradient></defs><g opacity="0.6"><ellipse cx="8.615" cy="1.723" rx="8.615" ry="1.723" transform="translate(8.042 29.729)" fill="url(#a)"/><ellipse cx="5.744" cy="1.149" rx="5.744" ry="1.149" transform="translate(8.042 30.304)" fill="url(#a)"/><path d="M28.83,30.189c0-1.766-5.932-3.2-13.249-3.2s-13.249,1.431-13.249,3.2v.078a13.249,13.249,0,1,0,26.5,0S28.83,30.215,28.83,30.189Z" transform="translate(-2.331 -11.488)" fill="url(#a)"/><rect width="23.661" height="1.149" transform="translate(6.948 3.443) rotate(5.572)" fill="url(#a)"/><path d="M17.114,14.592a2.009,2.009,0,0,1,0-3.182.864.864,0,0,0,0-1.413,2.009,2.009,0,0,1,0-3.182.926.926,0,0,0,.366-.706.927.927,0,0,0-.366-.706,2.053,2.053,0,0,1-.782-1.591,2.051,2.051,0,0,1,.782-1.591l.733.885a.926.926,0,0,0-.366.706.927.927,0,0,0,.366.706,2.009,2.009,0,0,1,0,3.182.864.864,0,0,0,0,1.413,2.009,2.009,0,0,1,0,3.182.864.864,0,0,0,0,1.413Z" transform="translate(-8.29 -0.945)" fill="url(#a)"/><path d="M21.114,14.592a2.009,2.009,0,0,1,0-3.182.864.864,0,0,0,0-1.413,2.009,2.009,0,0,1,0-3.182.926.926,0,0,0,.366-.706.927.927,0,0,0-.366-.706,2.053,2.053,0,0,1-.782-1.591,2.051,2.051,0,0,1,.782-1.591l.733.885a.926.926,0,0,0-.366.706.927.927,0,0,0,.366.706,2.009,2.009,0,0,1,0,3.182.864.864,0,0,0,0,1.413,2.009,2.009,0,0,1,0,3.182.864.864,0,0,0,0,1.413Z" transform="translate(-9.993 -0.945)" fill="url(#a)"/><path d="M25.114,14.592a2.009,2.009,0,0,1,0-3.182.864.864,0,0,0,0-1.413,2.009,2.009,0,0,1,0-3.182.926.926,0,0,0,.366-.706.927.927,0,0,0-.366-.706,2.053,2.053,0,0,1-.782-1.591,2.051,2.051,0,0,1,.782-1.591l.733.885a.926.926,0,0,0-.366.706.927.927,0,0,0,.366.706,2.009,2.009,0,0,1,0,3.182.864.864,0,0,0,0,1.413,2.009,2.009,0,0,1,0,3.182.864.864,0,0,0,0,1.413Z" transform="translate(-11.696 -0.945)" fill="url(#a)"/><path d="M29.114,14.592a2.009,2.009,0,0,1,0-3.182.864.864,0,0,0,0-1.413,2.009,2.009,0,0,1,0-3.182.926.926,0,0,0,.366-.706.927.927,0,0,0-.366-.706,2.053,2.053,0,0,1-.782-1.591,2.051,2.051,0,0,1,.782-1.591l.733.885a.926.926,0,0,0-.366.706.927.927,0,0,0,.366.706,2.009,2.009,0,0,1,0,3.182.864.864,0,0,0,0,1.413,2.009,2.009,0,0,1,0,3.182.864.864,0,0,0,0,1.413Z" transform="translate(-13.398 -0.945)" fill="url(#a)"/><ellipse cx="13.249" cy="3.198" rx="13.249" ry="3.198" transform="translate(0 15.502)" fill="url(#a)"/><path d="M32.859,35.276a.881.881,0,0,0-1.413,0l-.884-.733a2.01,2.01,0,0,1,3.182,0Z" transform="translate(-14.347 -14.37)" fill="url(#a)"/><path d="M38.859,34.276a.881.881,0,0,0-1.413,0l-.884-.733a2.01,2.01,0,0,1,3.182,0Z" transform="translate(-16.901 -13.944)" fill="url(#a)"/><path d="M42.859,32.276a.881.881,0,0,0-1.413,0l-.884-.733a2.01,2.01,0,0,1,3.182,0Z" transform="translate(-18.604 -13.093)" fill="url(#a)"/><path d="M36.859,31.276a.881.881,0,0,0-1.413,0l-.884-.733a2.01,2.01,0,0,1,3.182,0Z" transform="translate(-16.05 -12.667)" fill="url(#a)"/><path d="M30.859,32.276a.881.881,0,0,0-1.413,0l-.884-.733a2.01,2.01,0,0,1,3.182,0Z" transform="translate(-13.496 -13.093)" fill="url(#a)"/><path d="M30.859,29.276a.881.881,0,0,0-1.413,0l-.884-.733a2.01,2.01,0,0,1,3.182,0Z" transform="translate(-13.496 -11.816)" fill="url(#a)"/><path d="M24.859,31.276a.881.881,0,0,0-1.413,0l-.884-.733a2.01,2.01,0,0,1,3.182,0Z" transform="translate(-10.942 -12.667)" fill="url(#a)"/><path d="M25.859,35.276a.881.881,0,0,0-1.413,0l-.884-.733a2.01,2.01,0,0,1,3.182,0Z" transform="translate(-11.368 -14.37)" fill="url(#a)"/><path d="M19.859,35.276a.881.881,0,0,0-1.413,0l-.884-.733a2.01,2.01,0,0,1,3.182,0Z" transform="translate(-8.814 -14.37)" fill="url(#a)"/><path d="M7.859,34.276a.881.881,0,0,0-1.413,0l-.884-.733a2.01,2.01,0,0,1,3.182,0Z" transform="translate(-3.706 -13.944)" fill="url(#a)"/><path d="M14.859,34.276a.881.881,0,0,0-1.413,0l-.884-.733a2.01,2.01,0,0,1,3.182,0Z" transform="translate(-6.686 -13.944)" fill="url(#a)"/><path d="M17.859,31.276a.881.881,0,0,0-1.413,0l-.884-.733a2.01,2.01,0,0,1,3.182,0Z" transform="translate(-7.963 -12.667)" fill="url(#a)"/><path d="M9.859,31.276a.881.881,0,0,0-1.413,0l-.884-.733a2.01,2.01,0,0,1,3.182,0Z" transform="translate(-4.558 -12.667)" fill="url(#a)"/><rect width="1.149" height="24.937" transform="translate(29.787 0) rotate(82.056)" fill="url(#a)"/><path d="M13.814,46.469c-5.422-.839-6.49-7.708-6.49-7.708,1.646.833,3.04,1.589,3.56,2.845,1.852.1,2.83.693,2.518,2.46,4.99,1.176,4.812,2.091,3.413,2.791C15.925,46.77,13.814,46.469,13.814,46.469Z" transform="translate(-4.456 -16.498)" fill="url(#a)"/></g></svg>