<svg xmlns="http://www.w3.org/2000/svg" xmlns:xlink="http://www.w3.org/1999/xlink" width="24" height="31.656" viewBox="0 0 24 31.656"><defs><linearGradient id="a" x1="1" y1="-0.279" x2="1" y2="1.492" gradientUnits="objectBoundingBox"><stop offset="0" stop-color="#006a23"/><stop offset="1" stop-color="#00a839"/></linearGradient></defs><g transform="translate(-289 -285.344)"><g transform="translate(289 285.344)" opacity="0.6"><g transform="translate(1.126 4.327)"><path d="M17.874,20.026a8.45,8.45,0,0,1,.46-2.84,7.73,7.73,0,0,1-.46-1.375c0-5.551-4.465-7.471-7.109-8.122a.172.172,0,0,0-.211.171V23.43a24.884,24.884,0,0,0,6.4,1.083A10.043,10.043,0,0,0,17.874,20.026Z" transform="translate(-10.554 -7.684)" fill="url(#a)"/></g><g transform="translate(6.338 1.422)"><path d="M24.7,11.7a2.257,2.257,0,0,0-1.063-1.553,2.2,2.2,0,0,0,.382-2.254A.51.51,0,0,0,24.59,7.5,3.239,3.239,0,0,1,24.733,7a.511.511,0,0,1,.9-.1l.026.039a.488.488,0,0,0,.276.193,1.974,1.974,0,0,1,.153-.849.521.521,0,0,1,.886-.112c.04.049.078.1.115.152a.655.655,0,0,0,1.064.015,1.6,1.6,0,0,1,.427-.389c-1.154-2.211-3.708-3.382-6.661-3.382-.733,0-1.44-.026-2.108-.044a2.894,2.894,0,0,1,.068.289.528.528,0,0,0,.7.392.851.851,0,0,1,.755.053.153.153,0,0,1,.068.14,1.412,1.412,0,0,1-.284.637.655.655,0,0,0,.3,1.021c.06.021.12.045.177.07a.521.521,0,0,1,.129.883c-.277.222-1,1.452-1.811,2.187a7.5,7.5,0,0,1,2,5.358,7.715,7.715,0,0,0,.46,1.375,7.225,7.225,0,0,1,2.351-3.258Z" transform="translate(-19.811 -2.525)" fill="url(#a)"/></g><g transform="translate(7.52 8.495)"><path d="M30.155,26.664V15.088c-2.608.6-7.32,2.471-7.32,8.173a10.016,10.016,0,0,1-.926,4.487A24.885,24.885,0,0,0,30.155,26.664Z" transform="translate(-21.909 -15.088)" fill="url(#a)"/></g><path d="M9.892,4.331A10.507,10.507,0,0,1,15,7.1c.807-.735,1.534-1.965,1.811-2.187a.521.521,0,0,0-.129-.883c-.057-.025-.117-.048-.177-.07a.655.655,0,0,1-.3-1.021,1.4,1.4,0,0,0,.284-.637.152.152,0,0,0-.068-.14.851.851,0,0,0-.755-.053.529.529,0,0,1-.7-.392,3.19,3.19,0,0,0-.132-.5.511.511,0,0,0-.9-.123l-.028.039a.492.492,0,0,1-.28.186,1.974,1.974,0,0,0-.132-.852A.521.521,0,0,0,12.61.33c-.041.048-.081.1-.119.149A.655.655,0,0,1,11.427.468,1.412,1.412,0,0,0,10.9.011a.154.154,0,0,0-.155.025.851.851,0,0,0-.27.707.528.528,0,0,1-.58.56,3.147,3.147,0,0,0-.514-.019A.511.511,0,0,0,9,2.105l.029.038a.53.53,0,0,1-.181.79,1.084,1.084,0,0,0-.258.2.144.144,0,0,0-.011.186A10.269,10.269,0,0,0,9.7,4.433.169.169,0,0,1,9.892,4.331Z" transform="translate(-8.554 0)" fill="url(#a)"/><path d="M21.922,9.495a2.235,2.235,0,0,0-.627.1,11.493,11.493,0,0,1-1.376,1.654c-.033-.034-.069-.063-.1-.1a7.12,7.12,0,0,1,1.631,2.622c-.064-.178-.126-.357-.2-.524a2.218,2.218,0,0,1,2.383-.048,2.24,2.24,0,0,0-1.71-3.7Z" transform="translate(-13.476 -4.149)" fill="url(#a)"/><path d="M23.253,19.965a2.275,2.275,0,0,0,.342.034c.053,0,.1-.012.154-.016a7.3,7.3,0,0,1,2.06-2.618,2.244,2.244,0,0,0-3.45-1.5,8.151,8.151,0,0,1,.673,3.357A3.515,3.515,0,0,0,23.253,19.965Z" transform="translate(-14.586 -6.77)" fill="url(#a)"/><g transform="translate(10.16 4.782)"><path d="M33.885,11.68a1.1,1.1,0,0,0-.253-.206.53.53,0,0,1-.161-.794l.03-.037a.511.511,0,0,0-.358-.831,3.222,3.222,0,0,0-.514.006.529.529,0,0,1-.566-.574.85.85,0,0,0-.253-.713.152.152,0,0,0-.153-.028,1.412,1.412,0,0,0-.538.444.655.655,0,0,1-1.064-.015c-.037-.052-.075-.1-.115-.152a.521.521,0,0,0-.886.112,1.974,1.974,0,0,0-.153.849.488.488,0,0,1-.276-.193L28.6,9.509a.511.511,0,0,0-.9.1,3.116,3.116,0,0,0-.144.493.51.51,0,0,1-.575.395,2.2,2.2,0,0,1-.382,2.254,2.258,2.258,0,0,1,1.063,1.553,11.359,11.359,0,0,1,4.543-2.1v.727c.119-.029.241-.061.354-.086a.168.168,0,0,1,.193.107,10.2,10.2,0,0,0,1.14-1.087A.144.144,0,0,0,33.885,11.68Z" transform="translate(-26.599 -8.493)" fill="url(#a)"/></g><path d="M25.243,5.747a1.691,1.691,0,0,1-1.689-1.689.563.563,0,0,1,1.126,0,.563.563,0,0,0,.563.563.563.563,0,1,1,0,1.126Z" transform="translate(-15.108 -1.527)" fill="url(#a)"/><path d="M27.117,7.747a.563.563,0,0,1,0-1.126.563.563,0,0,0,.563-.563.563.563,0,1,1,1.126,0A1.691,1.691,0,0,1,27.117,7.747Z" transform="translate(-16.419 -2.401)" fill="url(#a)"/><path d="M25.32,42.915a3.572,3.572,0,0,1-3.561,3.561H13.116a3.571,3.571,0,0,1-3.561-3.561V35.68a.327.327,0,0,1,.419-.315,29.014,29.014,0,0,0,14.927,0,.327.327,0,0,1,.419.315Z" transform="translate(-8.992 -15.447)" fill="url(#a)"/><path d="M37.554,46.113l5.057-1.986a.019.019,0,0,0,0-.033l-5.057-1.986Z" transform="translate(-21.225 -18.399)" fill="url(#a)"/><path d="M15.117,45.865a.563.563,0,1,1,0-1.126c5.494,0,10.135-2.32,10.135-5.068a.563.563,0,1,1,1.126,0C26.378,43.144,21.432,45.865,15.117,45.865Z" transform="translate(-11.176 -17.088)" fill="url(#a)"/><path d="M40.922,38.671a.019.019,0,0,0,0-.033l-3.368-.53V40.36l1.239.486Z" transform="translate(-21.225 -16.651)" fill="url(#a)"/><circle cx="1.144" cy="1.144" r="1.144" transform="translate(4.504 14.605)" fill="url(#a)"/><circle cx="1.144" cy="1.144" r="1.144" transform="translate(2.252 7.285)" fill="url(#a)"/><circle cx="1.144" cy="1.144" r="1.144" transform="translate(12.352 17.42)" fill="url(#a)"/><circle cx="1.144" cy="1.144" r="1.144" transform="translate(10.117 12.37)" fill="url(#a)"/><ellipse cx="0.458" cy="0.458" rx="0.458" ry="0.458" transform="translate(7.601 13.302)" fill="url(#a)"/><ellipse cx="0.458" cy="0.458" rx="0.458" ry="0.458" transform="translate(9.783 17.103)" fill="url(#a)"/><ellipse cx="0.458" cy="0.458" rx="0.458" ry="0.458" transform="translate(13.724 14.64)" fill="url(#a)"/><ellipse cx="0.458" cy="0.458" rx="0.458" ry="0.458" transform="translate(13.724 10.135)" fill="url(#a)"/><ellipse cx="0.458" cy="0.458" rx="0.458" ry="0.458" transform="translate(10.135 19.355)" fill="url(#a)"/><ellipse cx="0.458" cy="0.458" rx="0.458" ry="0.458" transform="translate(3.589 18.229)" fill="url(#a)"/><ellipse cx="0.458" cy="0.458" rx="0.458" ry="0.458" transform="translate(6.194 18.792)" fill="url(#a)"/><ellipse cx="0.458" cy="0.458" rx="0.458" ry="0.458" transform="translate(2.463 12.387)" fill="url(#a)"/><ellipse cx="0.458" cy="0.458" rx="0.458" ry="0.458" transform="translate(5.067 10.698)" fill="url(#a)"/></g><ellipse cx="6.5" cy="0.5" rx="6.5" ry="0.5" transform="translate(300 316)" fill="url(#a)"/></g></svg>