<svg xmlns="http://www.w3.org/2000/svg" xmlns:xlink="http://www.w3.org/1999/xlink" width="45.351" height="26.052" viewBox="0 0 45.351 26.052"><defs><linearGradient id="a" x1="1" y1="-0.279" x2="1" y2="1.492" gradientUnits="objectBoundingBox"><stop offset="0" stop-color="#006a23"/><stop offset="1" stop-color="#00a839"/></linearGradient></defs><g transform="translate(-210 -290.486)"><g transform="translate(210 290.486)" opacity="0.6"><path d="M39.632,13.361c1,3.06,5.618,2.185,5.618,5.128,0,2.688-8.292,4.355-10.986,4.493l-11.232.209c-7.2,0-12.41-1.962-12.41-7.859S15.941,3.051,23.547,3.051c7.184,0,14.253,4.679,16.085,10.311Zm0,0" transform="translate(-9.821 -2.821)" fill="url(#a)"/><path d="M48.631,171.351a1.283,1.283,0,0,0-1.41.276c-1.934,1.971-8.14,3.164-10.4,3.28l-11.232.209a20.109,20.109,0,0,1-8.311-1.416c1.467,3.7,6.025,5.014,11.908,5.014l11.232-.209c2.694-.138,10.986-1.805,10.986-4.493,0-1.6-1.366-2.072-2.772-2.66Zm0,0" transform="translate(-15.975 -158.343)" fill="url(#a)"/><path d="M365.782.58a1.858,1.858,0,0,0-.187,1.646.85.85,0,0,1-.314.929l-4.989,3.615a1.352,1.352,0,1,0,1.6,2.18l4.943-3.677a.851.851,0,0,1,.981-.021,1.856,1.856,0,0,0,1.626.315,1.467,1.467,0,0,0,.832-2.013,1.59,1.59,0,0,0-1.466-.973.39.39,0,0,1-.367-.5,1.589,1.589,0,0,0-.49-1.69,1.467,1.467,0,0,0-2.17.19Zm0,0" transform="translate(-332.62 0.001)" fill="url(#a)"/><path d="M182.462,85.84a6.529,6.529,0,0,0,9.155,1.137,7.832,7.832,0,0,0,2.793-4.107,12.323,12.323,0,0,1,3.5-5.6,1.136,1.136,0,0,0,.188-1.507l-1.332-1.814a1.136,1.136,0,0,0-1.494-.272,12.325,12.325,0,0,1-6.394,1.656,7.831,7.831,0,0,0-4.755,1.435,6.528,6.528,0,0,0-1.657,9.075Zm0,0" transform="translate(-167.624 -67.967)" fill="url(#a)"/><path d="M204.295,77.837l-1.332-1.814a.79.79,0,0,0-.542-.252,1.854,1.854,0,0,0-1.636.637,17.1,17.1,0,0,0-3.3,5.415,7.832,7.832,0,0,1-2.794,4.107,6.771,6.771,0,0,1-6.7.825,6,6,0,0,0,.668,1.163,6.528,6.528,0,0,0,9.155,1.137,7.829,7.829,0,0,0,2.793-4.107,12.326,12.326,0,0,1,3.5-5.6A1.136,1.136,0,0,0,204.295,77.837Zm0,0" transform="translate(-173.827 -70.045)" fill="url(#a)"/><path d="M37.51,264.348H1.08a1.08,1.08,0,0,0,0,2.16H3.191a.662.662,0,0,1,.613.412l.37.9a2.25,2.25,0,0,0,2.083,1.4H32.332a2.25,2.25,0,0,0,2.083-1.4l.37-.9a.662.662,0,0,1,.613-.412H37.51a1.08,1.08,0,0,0,0-2.16Zm0,0" transform="translate(0 -244.424)" fill="url(#a)"/><path d="M76.915,264.348H73.557a2.16,2.16,0,0,1-2.16,2.16H42.618a.662.662,0,0,1,.593.41l.308.754H69.454c-.03.057-.058.116-.083.177l-.264.645a1.17,1.17,0,0,1-1.083.728h3.713a2.25,2.25,0,0,0,2.083-1.4l.37-.905a.663.663,0,0,1,.613-.412h2.112a1.08,1.08,0,1,0,0-2.16Zm0,0" transform="translate(-39.405 -244.424)" fill="url(#a)"/></g><ellipse cx="10.026" cy="0.917" rx="10.026" ry="0.917" transform="translate(235.3 314.704)" opacity="0.54" fill="url(#a)"/></g></svg>