<svg xmlns="http://www.w3.org/2000/svg" xmlns:xlink="http://www.w3.org/1999/xlink" width="44.351" height="22.981" viewBox="0 0 44.351 22.981"><defs><linearGradient id="a" x1="1" y1="-0.279" x2="1" y2="1.492" gradientUnits="objectBoundingBox"><stop offset="0" stop-color="#006a23"/><stop offset="1" stop-color="#00a839"/></linearGradient></defs><g transform="translate(-62 -289.557)"><g transform="translate(62 289.557)" opacity="0.6"><circle cx="1.548" cy="1.548" r="1.548" transform="translate(31.965 13.821)" fill="url(#a)"/><path d="M29.306,215.282a5.311,5.311,0,0,1-.428-1.194l2.933-.5,5.177,3.892-5.146,3.9-2.964-.508a5.313,5.313,0,0,1,.428-1.194A4.891,4.891,0,0,0,29.306,215.282Z" transform="translate(-26.709 -205.871)" fill="url(#a)"/><path d="M29.234,271.255a1.448,1.448,0,0,1-2.158-1.245c0-.007,0-.015,0-.022a5.364,5.364,0,0,1,.135-1.2l8.11-3.39A17.087,17.087,0,0,1,29.234,271.255Z" transform="translate(-25.042 -253.794)" fill="url(#a)"/><g transform="translate(2.034 1.198)"><path d="M27.077,186.406c0-.007,0-.015,0-.022a1.448,1.448,0,0,1,2.158-1.245,17.088,17.088,0,0,1,6.087,5.855l-8.11-3.39A5.368,5.368,0,0,1,27.077,186.406Z" transform="translate(-27.077 -180.587)" fill="url(#a)"/><path d="M187.652,126.826l5.766,1.9.193,4.062H186.1v-3.178A3.267,3.267,0,0,1,187.652,126.826Z" transform="translate(-174.151 -126.826)" fill="url(#a)"/></g><path d="M207.647,113.416a21.14,21.14,0,0,1,3.481-.7l5.335,2.183,1.3,4.449a2.282,2.282,0,0,1-1.291.387h-3.68l-5.959-5.959A3.3,3.3,0,0,1,207.647,113.416Z" transform="translate(-191.294 -112.58)" fill="url(#a)"/><path d="M266.491,110.873a3.234,3.234,0,0,1,2.287.947l2.264,2.264a2.316,2.316,0,0,1-.343,3.559l-6.631-6.631A21.387,21.387,0,0,1,266.491,110.873Z" transform="translate(-244.233 -110.873)" fill="url(#a)"/><path d="M125.53,159.807a16.532,16.532,0,0,1,13.34,6.761q-.418.567-.788,1.17.369.6.788,1.17a16.54,16.54,0,0,1-26.223.594,2.8,2.8,0,0,1,0-3.529A16.521,16.521,0,0,1,125.53,159.807Z" transform="translate(-103.61 -156.132)" fill="url(#a)"/><path d="M164.513,159.807a16.519,16.519,0,0,1,12.888,6.177,16.528,16.528,0,0,1-21.794,2.072,3.48,3.48,0,0,1,.2-5.764A16.428,16.428,0,0,1,164.513,159.807Z" transform="translate(-142.593 -156.132)" fill="url(#a)"/><path d="M286.654,160.7a16.544,16.544,0,0,1,11.851,6.694q-.418.567-.788,1.17.369.6.788,1.17a16.59,16.59,0,0,1-9.163,6.226,10.834,10.834,0,0,1-2.688-15.261Z" transform="translate(-263.245 -156.953)" opacity="0.4" fill="url(#a)"/><path d="M445.476,239.029a1.161,1.161,0,0,0,.934-1.849q-.175-.238-.341-.482.166-.244.341-.482a1.161,1.161,0,0,0-1.869-1.376c-.3.407-.583.828-.843,1.251a1.16,1.16,0,0,0,0,1.213c.26.424.543.845.843,1.251A1.159,1.159,0,0,0,445.476,239.029Z" transform="translate(-410.214 -225.092)" fill="url(#a)"/><path d="M337.038,226.007a3.482,3.482,0,1,0-3.482-3.482A3.486,3.486,0,0,0,337.038,226.007Z" transform="translate(-308.503 -210.919)" opacity="0.4" fill="url(#a)"/><path d="M351.33,239.138a2.321,2.321,0,1,1,2.321-2.321A2.324,2.324,0,0,1,351.33,239.138Z" transform="translate(-322.796 -225.211)" fill="url(#a)"/><path d="M349.009,236.816a2.32,2.32,0,1,0,2.321-2.321A2.31,2.31,0,0,0,349.009,236.816Z" transform="translate(-322.796 -225.21)" fill="url(#a)"/><circle cx="0.58" cy="0.58" r="0.58" transform="translate(27.954 11.026)" fill="url(#a)"/><path d="M110.832,263.864a6.193,6.193,0,0,0-10.341,2.708,1.316,1.316,0,0,0,1.267,1.67h9.391a1.316,1.316,0,0,0,1.267-1.67A6.175,6.175,0,0,0,110.832,263.864Z" transform="translate(-92.898 -250.697)" fill="url(#a)"/><path d="M185.128,304.035h-4.642l3.283-3.283h0A4.626,4.626,0,0,1,185.128,304.035Z" transform="translate(-166.93 -286.491)" fill="url(#a)"/><path d="M183.768,284.014h0l-3.283,3.283v-4.643A4.626,4.626,0,0,1,183.768,284.014Z" transform="translate(-166.929 -269.753)" fill="url(#a)"/><path d="M140.053,282.656V287.3l-3.283-3.283h0A4.625,4.625,0,0,1,140.053,282.656Z" transform="translate(-126.497 -269.754)" fill="url(#a)"/><path d="M123.317,304.034h-4.643a4.626,4.626,0,0,1,1.359-3.283h0Z" transform="translate(-109.762 -286.49)" fill="url(#a)"/><circle cx="1.548" cy="1.548" r="1.548" transform="translate(33.358 16.009)" fill="url(#a)"/><circle cx="1.548" cy="1.548" r="1.548" transform="translate(22.4 16.009)" fill="url(#a)"/><circle cx="1.548" cy="1.548" r="1.548" transform="translate(30.542 16.009)" fill="url(#a)"/><circle cx="1.548" cy="1.548" r="1.548" transform="translate(27.971 16.009)" fill="url(#a)"/><path d="M59.349,363.014H33.416a2.321,2.321,0,0,1-1.641-.68l-2.415-2.415H63.4l-2.415,2.415A2.321,2.321,0,0,1,59.349,363.014Z" transform="translate(-27.155 -341.214)" fill="url(#a)"/><path d="M37.295,346.787H1.161A1.161,1.161,0,0,1,0,345.627H0a1.161,1.161,0,0,1,1.161-1.161H37.295a1.161,1.161,0,0,1,1.161,1.161h0A1.161,1.161,0,0,1,37.295,346.787Z" transform="translate(0 -326.921)" fill="url(#a)"/></g><ellipse cx="9.026" cy="0.917" rx="9.026" ry="0.917" transform="translate(88.3 310.704)" opacity="0.54" fill="url(#a)"/></g></svg>