<svg xmlns="http://www.w3.org/2000/svg" width="20" height="20" viewBox="0 0 20 20"><path d="M12.917,15h-.833a.417.417,0,0,0-.417.417v2.917h-10V1.667h10V4.583A.417.417,0,0,0,12.083,5h.833a.417.417,0,0,0,.417-.417V1.667A1.667,1.667,0,0,0,11.667,0h-10A1.667,1.667,0,0,0,0,1.667V18.333A1.667,1.667,0,0,0,1.667,20h10a1.667,1.667,0,0,0,1.667-1.667V15.417A.417.417,0,0,0,12.917,15Z" fill="#ff7474"/><path d="M142.865,132.687l-5-4.583a.417.417,0,0,0-.7.307v.833a.416.416,0,0,0,.138.31l2.9,2.607H128.417a.416.416,0,0,0-.417.417v.833a.416.416,0,0,0,.417.417H140.2l-2.9,2.607a.416.416,0,0,0-.138.31v.833a.416.416,0,0,0,.249.381.411.411,0,0,0,.168.035.418.418,0,0,0,.282-.109l5-4.583a.417.417,0,0,0,0-.614Z" transform="translate(-123 -122.994)" fill="#ff7474"/></svg>