<svg xmlns="http://www.w3.org/2000/svg" xmlns:xlink="http://www.w3.org/1999/xlink" width="213.135" height="114.197" viewBox="0 0 213.135 114.197"><defs><linearGradient id="a" x1="0.512" y1="0.578" x2="0.5" y2="1" gradientUnits="objectBoundingBox"><stop offset="0" stop-color="#ff6161"/><stop offset="1" stop-color="#e87373"/></linearGradient><linearGradient id="b" x1="0.5" x2="0.5" y2="1" gradientUnits="objectBoundingBox"><stop offset="0" stop-color="red"/><stop offset="1" stop-color="#ff8d8d"/></linearGradient><linearGradient id="c" x1="0.5" x2="0.5" y2="1" gradientUnits="objectBoundingBox"><stop offset="0" stop-color="red"/><stop offset="1" stop-color="red"/></linearGradient><filter id="d" x="109.525" y="69.146" width="103.609" height="33.836" filterUnits="userSpaceOnUse"><feOffset input="SourceAlpha"/><feGaussianBlur stdDeviation="3" result="e"/><feFlood flood-color="#ff7474" flood-opacity="0.431"/><feComposite operator="in" in2="e"/><feComposite in="SourceGraphic"/></filter></defs><g transform="translate(388 -304)"><g transform="translate(-12 10)"><path d="M26.786,87.243,0,63.738l.239-1.12a3.429,3.429,0,1,0,1.429-6.691l1.572-7.362,0,.006c.214.269,2.177,2.721,5.042,5.89a3.429,3.429,0,1,0,4.648,4.9c6.68,6.7,12.431,10.973,17.093,12.71a16.11,16.11,0,0,0,5.63,1.048,17.56,17.56,0,0,0,10.247-3.612,21.076,21.076,0,0,0,3.848-3.61L8.1,25.806l.844-3.95a3.429,3.429,0,1,0,1.415-6.623l.983-4.6L45.423,0c.094.156,9.947,16.714,17,28.279a8.339,8.339,0,0,0-1.361,1.436c-.359-.375-.739-.767-1.131-1.166C55.152,23.682,48.189,17.41,42.182,15.172a43.284,43.284,0,0,0-13.993-3.034c-3.245,0-5.392.792-6.38,2.354s-.77,3.867.645,6.855c1.25,2.638,4.218,6.388,8.82,11.144,3.687,3.809,8.418,8.263,14.062,13.238,9.486,8.364,18.4,15.411,18.77,15.707l-.293,3.513a3.429,3.429,0,1,0-.634,6.8h.067l-.415,4.979L26.786,87.243h0Z" transform="translate(-335.208 309.865)" stroke="#ff7474" stroke-linecap="round" stroke-width="0.5" fill="url(#a)"/><g transform="matrix(0.978, 0.208, -0.208, 0.978, -290.9, 319.152)" stroke-linecap="round"><path d="M 1.997860193252563 3.899999856948853 L 1.995870232582092 3.899999856948853 C 1.488790273666382 3.899999856948853 1.012370228767395 3.702639818191528 0.6543702483177185 3.344269990921021 C 0.2963602244853973 2.985909938812256 0.09949024021625519 2.509259939193726 0.1000002399086952 2.002139806747437 C 0.1010702401399612 0.9543699026107788 0.9543702602386475 0.1010698825120926 2.002140283584595 0.09999988228082657 C 2.511210203170776 0.09999988228082657 2.987630128860474 0.2973598837852478 3.345630168914795 0.6557198762893677 C 3.703640222549438 1.014089822769165 3.900510311126709 1.490739822387695 3.900000333786011 1.997859835624695 C 3.898940324783325 3.045629978179932 3.045640230178833 3.898929834365845 1.997860193252563 3.899999856948853 Z" stroke="none"/><path d="M 2.002240180969238 0.2000000476837158 C 1.00950026512146 0.2010200023651123 0.2010202407836914 1.009500026702881 0.2000002861022949 2.002240180969238 C 0.1995103359222412 2.482630252838135 0.3860001564025879 2.934140205383301 0.7251102924346924 3.273600101470947 C 1.064220190048218 3.613050222396851 1.515520334243774 3.800000190734863 1.99776029586792 3.800000190734863 C 2.990510225296021 3.798980236053467 3.798990249633789 2.990499973297119 3.800000190734863 1.997760057449341 C 3.800490140914917 1.517360210418701 3.61400032043457 1.065850019454956 3.274890184402466 0.7264001369476318 C 2.93578028678894 0.3869500160217285 2.484480381011963 0.2000000476837158 2.004130363464355 0.2000000476837158 L 2.002240180969238 0.2000000476837158 M 2.004130840301514 -7.152557373046875e-07 C 3.107770204544067 -7.152557373046875e-07 4.001119613647461 0.89406418800354 4 1.997960090637207 C 3.99888014793396 3.102530002593994 3.102530241012573 3.998870134353638 1.997960329055786 4 C 1.997286081314087 4.000000953674316 1.996543645858765 4.000000953674316 1.995869636535645 4.000000953674316 C 0.8922402858734131 4.000000953674316 -0.001119136810302734 3.105936050415039 4.76837158203125e-07 2.002040147781372 C 0.001130342483520508 0.897470235824585 0.897470235824585 0.001130104064941406 2.002040386199951 2.384185791015625e-07 C 2.002714395523071 -7.152557373046875e-07 2.003456830978394 -7.152557373046875e-07 2.004130840301514 -7.152557373046875e-07 Z" stroke="none" fill="#ff7474"/></g><path d="M8737.848,233.592h25.063" transform="translate(-9093.86 94.341)" fill="#9c9a9a" stroke="#9c9a9a" stroke-linecap="round" stroke-width="2" stroke-dasharray="16"/><path d="M8737.848,233.592h12.532" transform="translate(-9088.849 110.98)" fill="#9c9a9a" stroke="#9c9a9a" stroke-linecap="round" stroke-width="2" stroke-dasharray="5"/><path d="M8737.848,233.592h12.532" transform="translate(-9112.848 94.341)" fill="#9c9a9a" stroke="#9c9a9a" stroke-linecap="round" stroke-width="2" stroke-dasharray="5"/><path d="M0,0H25.062" transform="translate(-338.692 367.731) rotate(180)" fill="#9c9a9a" stroke="#9c9a9a" stroke-linecap="round" stroke-width="2" stroke-dasharray="10"/><g transform="translate(-326.345 402.404)" fill="#fff" stroke="#000" stroke-width="1" opacity="0.38"><ellipse cx="17.142" cy="1.143" rx="17.142" ry="1.143" stroke="none"/><ellipse cx="17.142" cy="1.143" rx="16.642" ry="0.643" fill="none"/></g><g transform="translate(-283.15 321.857) rotate(143)" fill="#fff"><path d="M 2.416693449020386 11.85020542144775 C 2.421711683273315 11.80233383178711 2.425823926925659 11.75466537475586 2.428961992263794 11.70724487304688 L 2.429281949996948 11.70233535766602 L 2.429512023925781 11.69741535186768 C 2.457182645797729 11.10153293609619 2.472710371017456 10.32093811035156 2.347163915634155 9.559368133544922 C 2.300636053085327 9.169326782226563 2.168569564819336 8.828304290771484 2.051902055740356 8.527045249938965 L 2.037325859069824 8.489371299743652 C 1.988633990287781 8.339512825012207 1.917078733444214 8.225269317626953 1.859091997146606 8.132715225219727 C 1.831841945648193 8.089204788208008 1.808311939239502 8.051634788513184 1.794422030448914 8.021764755249023 L 1.767131924629211 7.96305513381958 L 1.725791931152344 7.913225173950195 L 1.377556324005127 7.493553638458252 C 1.324917674064636 7.418912887573242 1.276828527450562 7.358776569366455 1.234012007713318 7.305235385894775 C 1.156641960144043 7.208465099334717 1.095521926879883 7.132035255432129 1.012321949005127 6.975125312805176 L 1.009992003440857 6.970725059509277 L 1.007561922073364 6.966365337371826 C 0.8892219662666321 6.75354528427124 0.7468019723892212 6.483755111694336 0.6954019665718079 6.284835338592529 L 0.6883119940757751 6.257375240325928 L 0.6781519651412964 6.230885028839111 C 0.5207319855690002 5.820394992828369 0.5105219483375549 5.377355098724365 0.5006420016288757 4.94889497756958 L 0.5000734329223633 4.924316883087158 C 0.5095502138137817 4.197882175445557 0.6662701964378357 3.47994589805603 0.9790719747543335 2.729825258255005 C 0.9989408850669861 2.682097434997559 1.021131038665771 2.63417911529541 1.045483469963074 2.586038589477539 C 1.038776397705078 2.63907265663147 1.033635377883911 2.692040681838989 1.030211925506592 2.744685173034668 L 1.029911994934082 2.749405145645142 L 1.029691934585571 2.754125118255615 C 0.999891996383667 3.401205062866211 0.9844419956207275 4.163365364074707 1.095801949501038 4.910045146942139 C 1.146937370300293 5.275009632110596 1.246761441230774 5.6507248878479 1.384219169616699 5.99406909942627 C 1.434797167778015 6.154386043548584 1.499116063117981 6.266260147094727 1.546711921691895 6.349025249481201 C 1.557814359664917 6.368340015411377 1.567901492118835 6.385886192321777 1.57607901096344 6.401107788085938 C 1.631730318069458 6.545716285705566 1.73870050907135 6.669569969177246 1.869081974029541 6.820525169372559 C 1.916362047195435 6.875252723693848 1.965216636657715 6.931816577911377 1.994728446006775 6.971488475799561 L 1.990291953086853 6.975255012512207 L 2.008522033691406 6.998404979705811 L 2.073041915893555 7.080815315246582 L 2.195565938949585 7.238704681396484 C 2.224067449569702 7.278275489807129 2.253743171691895 7.317205429077148 2.283482074737549 7.356085300445557 C 2.327994823455811 7.414284229278564 2.370227336883545 7.469517230987549 2.399886846542358 7.518426895141602 C 2.439926147460938 7.600211143493652 2.481738567352295 7.677804946899414 2.522262096405029 7.753035068511963 C 2.601111888885498 7.899354934692383 2.675581932067871 8.037565231323242 2.710812091827393 8.160775184631348 L 2.716202020645142 8.179625511169434 L 2.723052024841309 8.197995185852051 C 2.86640191078186 8.582425117492676 2.936081886291504 9.011935234069824 2.936081886291504 9.511085510253906 L 2.936081886291504 9.521135330200195 L 2.936481952667236 9.531185150146484 C 2.953301906585693 9.949185371398926 2.875952005386353 10.34755516052246 2.795281887054443 10.71975517272949 C 2.729601860046387 11.03444480895996 2.627742052078247 11.35119533538818 2.473912000656128 11.72035503387451 C 2.455955028533936 11.76363754272461 2.436843156814575 11.80694675445557 2.416693449020386 11.85020542144775 Z M 2.354887247085571 6.665712833404541 L 1.883461952209473 6.662704944610596 L 2.383382081985474 6.16596508026123 L 2.383382081985474 6.641520977020264 L 2.354887247085571 6.665712833404541 Z" stroke="none"/><path d="M 1.412755727767944 6.665894985198975 C 1.425366401672363 6.688871383666992 1.436241388320923 6.708429336547852 1.444551944732666 6.72337532043457 L 1.449402093887329 6.732085227966309 L 1.454071998596191 6.740905284881592 C 1.515301942825317 6.856395244598389 1.551801919937134 6.902035236358643 1.624521970748901 6.992975234985352 C 1.656087279319763 7.032451152801514 1.692642569541931 7.07816743850708 1.732797741889954 7.131911277770996 L 1.892444014549255 7.034156799316406 L 2.326205253601074 6.665894985198975 L 1.412755727767944 6.665894985198975 M 2.883731842041016 -4.76837158203125e-06 C 2.883731842041016 -4.76837158203125e-06 1.611501932144165 1.510834693908691 1.529161930084229 2.777125358581543 C 1.499941945075989 3.411664962768555 1.485671997070313 4.134505271911621 1.59033203125 4.836295127868652 C 1.639081954956055 5.18409538269043 1.733572006225586 5.525815010070801 1.855901956558228 5.826825141906738 C 1.907591938972473 6.000844955444336 1.984311938285828 6.093935012817383 2.038002014160156 6.2066650390625 C 2.061751842498779 6.303845405578613 2.285922050476074 6.523945331573486 2.398662090301514 6.67679500579834 L 2.423932075500488 6.708714962005615 L 2.429301977157593 6.717484951019287 C 2.404141902923584 6.689064979553223 2.391881942749023 6.6755051612854 2.383111953735352 6.665915012359619 L 2.401341915130615 6.689064979553223 L 2.46671199798584 6.772565364837646 L 2.596411943435669 6.939685344696045 C 2.677922010421753 7.053825378417969 2.771591901779175 7.16117525100708 2.840951919555664 7.282104969024658 C 2.960472106933594 7.530025005340576 3.118102073669434 7.766485214233398 3.191541910171509 8.02330493927002 C 3.379011869430542 8.526055335998535 3.436081886291504 9.043655395507813 3.436081886291504 9.511085510253906 C 3.455162048339844 9.985295295715332 3.370821952819824 10.42477512359619 3.283931970596313 10.82566547393799 C 3.199722051620483 11.22924518585205 3.0693519115448 11.59131526947021 2.935441970825195 11.91267490386963 C 2.398782014846802 13.20621490478516 0.9708418846130371 14.46828556060791 0.9708418846130371 14.46828556060791 C 0.9708418846130371 14.46828556060791 1.846431970596313 12.93782520294189 1.930051922798157 11.67422485351563 C 1.959291934967041 11.04447555541992 1.967371940612793 10.32093524932861 1.851931929588318 9.629315376281738 C 1.811831951141357 9.277305603027344 1.682021975517273 8.957345008850098 1.565312027931213 8.655044555664063 C 1.516301989555359 8.494125366210938 1.408252000808716 8.377175331115723 1.341012001037598 8.232515335083008 L 0.9796419143676758 7.797015190124512 C 0.8389520645141602 7.593874931335449 0.7301919460296631 7.510375022888184 0.5705819129943848 7.209355354309082 C 0.4191319942474365 6.936995029449463 0.2744519710540771 6.654335021972656 0.2113020420074463 6.409914970397949 C 0.01823186874389648 5.906465530395508 0.01085186004638672 5.392845153808594 1.9073486328125e-06 4.926815032958984 C 0.01085186004638672 3.984465599060059 0.2493219375610352 3.180705070495605 0.5175919532775879 2.537384986877441 C 1.054372072219849 1.247944831848145 2.883731842041016 -4.76837158203125e-06 2.883731842041016 -4.76837158203125e-06 Z M 2.38344931602478 6.665892601013184 C 2.383455753326416 6.664908885955811 2.374500513076782 6.654421806335449 2.37415599822998 6.654420375823975 C 2.374500513076782 6.654421806335449 2.383455753326416 6.664908885955811 2.38344931602478 6.665892601013184 C 2.383449077606201 6.66594123840332 2.383427143096924 6.665966510772705 2.383381366729736 6.665966510772705 C 2.383427143096924 6.665966510772705 2.383449077606201 6.66594123840332 2.38344931602478 6.665892601013184 Z" stroke="none" fill="#fff"/></g><g transform="matrix(0.951, -0.309, 0.309, 0.951, -340.957, 221.666)"><g transform="translate(0 84)"><path d="M19.406,85.69a5.038,5.038,0,0,0-2.2.51,6.71,6.71,0,0,0-3.988-2.127h0q-.119-.017-.239-.031h-.007q-.118-.013-.236-.022l-.029,0-.195-.011-.057,0c-.075,0-.15,0-.225,0s-.15,0-.225,0l-.057,0-.195.011-.029,0q-.119.009-.236.022h-.007q-.12.013-.239.031h0A6.709,6.709,0,0,0,7.247,86.2a5.039,5.039,0,0,0-4.712,8.9v3.234a1.242,1.242,0,0,0,1.241,1.241h16.9a1.242,1.242,0,0,0,1.241-1.241V95.1a5.039,5.039,0,0,0-2.508-9.412Zm-5.492,13.1H10.534a.871.871,0,0,1,0-1.743h3.379a.871.871,0,0,1,0,1.743Zm7.208-.449a.449.449,0,0,1-.449.449H15.33a1.662,1.662,0,0,0-1.416-2.535H10.534a1.662,1.662,0,0,0-1.416,2.535H3.776a.449.449,0,0,1-.449-.449V95.353h17.8Zm.122-3.776H17.763a6.732,6.732,0,0,0,.417-.686.4.4,0,0,0-.7-.37,5.956,5.956,0,0,1-.713,1.056H7.682A5.953,5.953,0,0,1,6.969,93.5a.4.4,0,0,0-.7.37,6.732,6.732,0,0,0,.417.686H3.205a4.247,4.247,0,0,1,3.532-7.724,6.746,6.746,0,0,0-.681,1.2.4.4,0,0,0,.726.317,5.945,5.945,0,0,1,4.57-3.5h0q.206-.031.416-.047l.045,0,.157-.009.054,0c.066,0,.133,0,.2,0s.134,0,.2,0l.054,0,.157.009.045,0q.21.016.416.047h0a5.945,5.945,0,0,1,4.57,3.5.4.4,0,0,0,.726-.317,6.746,6.746,0,0,0-.681-1.2,4.247,4.247,0,0,1,3.531,7.724Z" transform="translate(0 -84)" fill="url(#b)"/></g></g></g><g transform="translate(-343 127)"><g transform="translate(-105.118 93)"><g transform="translate(-13.882 24.476)"><g transform="translate(78 68.906)"><g transform="translate(0 0)"><g transform="translate(0 0)"><g transform="matrix(1, 0, 0, 1, -4, -9.38)" filter="url(#d)"><path d="M-32-13.594v1.283a2.168,2.168,0,0,0-1.055.586,1.392,1.392,0,0,0-.363.977,1.627,1.627,0,0,0,.3.977,2.97,2.97,0,0,0,.982.8q.469.257,2.12.982a11.608,11.608,0,0,1,1.557.787,5.416,5.416,0,0,1,1.043.876A4.612,4.612,0,0,1-26.1-3.036,5.035,5.035,0,0,1-26.809-.4a5.066,5.066,0,0,1-1.964,1.875,6.64,6.64,0,0,1-1.468.564,5.967,5.967,0,0,1-1.49.206V.97a3.016,3.016,0,0,0,1.4-.653A1.508,1.508,0,0,0-29.9-.815a1.691,1.691,0,0,0-.67-1.317,7.96,7.96,0,0,0-1.7-.915q-1.373-.6-1.88-.859a6.835,6.835,0,0,1-.977-.6,4.661,4.661,0,0,1-2.1-3.984,5.293,5.293,0,0,1,.525-2.349,4.47,4.47,0,0,1,1.462-1.735A6.07,6.07,0,0,1-32-13.594Zm.882,1.283v-1.228a6.293,6.293,0,0,1,1.161.173,11.35,11.35,0,0,1,1.4.508,1.042,1.042,0,0,0,.368.089.354.354,0,0,0,.312-.145l.246-.324a.525.525,0,0,1,.435-.246.485.485,0,0,1,.441.218,1.306,1.306,0,0,1,.14.686V-8.9a.767.767,0,0,1-.184.53.606.606,0,0,1-.474.206.666.666,0,0,1-.413-.145.68.68,0,0,1-.162-.218,1.888,1.888,0,0,1-.117-.43,4.681,4.681,0,0,0-.424-1.127,5.187,5.187,0,0,0-.7-1.038A3.82,3.82,0,0,0-31.117-12.31ZM-32.579.97V2.242a4.765,4.765,0,0,1-2.02-.525q-.413-.19-.569-.246a.894.894,0,0,0-.3-.056.621.621,0,0,0-.335.073,2.135,2.135,0,0,0-.357.363A.567.567,0,0,1-36.6,2.1q-.625,0-.625-.96V-2.925a.808.808,0,0,1,.179-.53.588.588,0,0,1,.446-.229.468.468,0,0,1,.385.14,1.285,1.285,0,0,1,.24.53,7.347,7.347,0,0,0,.742,1.8A5.773,5.773,0,0,0-34.1.2,3.083,3.083,0,0,0-32.579.97Zm9.185-3.482v-8.75a.957.957,0,0,0-.134-.569.346.346,0,0,0-.128-.128q-.061-.028-.43-.151a.578.578,0,0,1-.446-.591.5.5,0,0,1,.218-.441,1.081,1.081,0,0,1,.619-.151h5.558l.4.045a.634.634,0,0,1,.312.2.518.518,0,0,1,.123.346.578.578,0,0,1-.446.591q-.368.123-.43.151a.346.346,0,0,0-.128.128.957.957,0,0,0-.134.569V-1.9a11.6,11.6,0,0,0,.05,1.322A2.047,2.047,0,0,0-18.182.1a1.078,1.078,0,0,0,.324.4,2.829,2.829,0,0,0,.681.279V2.242h-.246a9.517,9.517,0,0,1-2.411-.257,6.236,6.236,0,0,1-1.975-.893A3.532,3.532,0,0,1-23.015-.235,5.376,5.376,0,0,1-23.394-2.512Zm7.243,4.754V.781a3.07,3.07,0,0,0,1.864-.915,3.51,3.51,0,0,0,.848-2.533V-9.944a2.188,2.188,0,0,0-1.172-2.132,1.544,1.544,0,0,1-.452-.307.574.574,0,0,1-.106-.374.438.438,0,0,1,.212-.413,1.451,1.451,0,0,1,.692-.123h2.734a4.04,4.04,0,0,1,.463.017.61.61,0,0,1,.229.084.51.51,0,0,1,.29.458.544.544,0,0,1-.179.413,3.965,3.965,0,0,1-.48.3,1.854,1.854,0,0,0-.77.82,2.747,2.747,0,0,0-.279,1.256v7.288a5.335,5.335,0,0,1-.826,3.08,4.2,4.2,0,0,1-1.73,1.428A4.829,4.829,0,0,1-16.151,2.242Zm13.37-15.535V-.179a.938.938,0,0,0,.167.625.414.414,0,0,0,.167.14q.078.028.513.14a.594.594,0,0,1,.536.614.534.534,0,0,1-.29.469,1.376,1.376,0,0,1-.7.134H-8.038a1.081,1.081,0,0,1-.619-.151.491.491,0,0,1-.218-.43.584.584,0,0,1,.446-.6Q-8.06.635-8,.608A.346.346,0,0,0-7.871.479.957.957,0,0,0-7.737-.09V-11.261a.957.957,0,0,0-.134-.569A.346.346,0,0,0-8-11.959q-.061-.028-.43-.151a.584.584,0,0,1-.446-.6.491.491,0,0,1,.218-.43,1.081,1.081,0,0,1,.619-.151h5.256Zm.949,9.4V-5.09a2.388,2.388,0,0,0,.675-.234A1.036,1.036,0,0,0-.817-5.7,2.481,2.481,0,0,0-.583-6.875v-3.571a2.886,2.886,0,0,0-.078-.781A1.043,1.043,0,0,0-.974-11.7a1.525,1.525,0,0,0-.87-.391v-1.205a9.8,9.8,0,0,1,3.393.435,4.365,4.365,0,0,1,2,1.54,4.4,4.4,0,0,1,.748,2.6A4.828,4.828,0,0,1,3.535-5.9a4.409,4.409,0,0,1-2.12,1.6A9.884,9.884,0,0,1-1.833-3.9Zm13.593-9.4V-.179a.938.938,0,0,0,.167.625.414.414,0,0,0,.167.14q.078.028.513.14a.594.594,0,0,1,.536.614.534.534,0,0,1-.29.469,1.376,1.376,0,0,1-.7.134H6.5a1.081,1.081,0,0,1-.619-.151.491.491,0,0,1-.218-.43.584.584,0,0,1,.446-.6q.368-.123.43-.151A.346.346,0,0,0,6.671.479.957.957,0,0,0,6.805-.09V-11.261a.957.957,0,0,0-.134-.569.346.346,0,0,0-.128-.128q-.061-.028-.43-.151a.584.584,0,0,1-.446-.6.491.491,0,0,1,.218-.43,1.081,1.081,0,0,1,.619-.151H11.76Zm.949,9.4V-5.09a2.388,2.388,0,0,0,.675-.234,1.036,1.036,0,0,0,.34-.379,2.481,2.481,0,0,0,.234-1.172v-3.571a2.886,2.886,0,0,0-.078-.781,1.043,1.043,0,0,0-.312-.469,1.525,1.525,0,0,0-.87-.391v-1.205a9.8,9.8,0,0,1,3.393.435,4.365,4.365,0,0,1,2,1.54,4.4,4.4,0,0,1,.748,2.6A4.828,4.828,0,0,1,18.077-5.9a4.409,4.409,0,0,1-2.12,1.6A9.884,9.884,0,0,1,12.709-3.9Zm13.593-9.4V1.941H21.045a1.081,1.081,0,0,1-.619-.151.491.491,0,0,1-.218-.43.584.584,0,0,1,.446-.6q.368-.123.43-.151a.346.346,0,0,0,.128-.128.957.957,0,0,0,.134-.569V-11.261a.957.957,0,0,0-.134-.569.346.346,0,0,0-.128-.128q-.061-.028-.43-.151a.584.584,0,0,1-.446-.6.491.491,0,0,1,.218-.43,1.081,1.081,0,0,1,.619-.151H26.3Zm.993,0h4.5v3.951a.765.765,0,0,1-.134.5.529.529,0,0,1-.424.156.525.525,0,0,1-.357-.1.984.984,0,0,1-.212-.413,4.18,4.18,0,0,0-1.244-1.975,3.861,3.861,0,0,0-2.126-.815Zm-.056,8.125V-6.462a2.894,2.894,0,0,0,.96-.681,2.319,2.319,0,0,0,.458-.982,1.313,1.313,0,0,1,.234-.586.526.526,0,0,1,.413-.162.5.5,0,0,1,.491.279,1.7,1.7,0,0,1,.078.658v4.252a1.569,1.569,0,0,1-.117.725.455.455,0,0,1-.43.2.521.521,0,0,1-.4-.156,1.192,1.192,0,0,1-.234-.525,2.871,2.871,0,0,0-.541-1.183A1.673,1.673,0,0,0,27.239-5.168Zm.067,7.109V.736a5.112,5.112,0,0,0,1.2-.312A3.683,3.683,0,0,0,29.46-.19a4.013,4.013,0,0,0,.764-.854,5.662,5.662,0,0,0,.541-1.166,1.265,1.265,0,0,1,.257-.485.51.51,0,0,1,.368-.128.484.484,0,0,1,.435.184A1.22,1.22,0,0,1,31.949-2v3.94Zm12.41-15.234V-.179a.938.938,0,0,0,.167.625.414.414,0,0,0,.167.14q.078.028.513.14a.594.594,0,0,1,.536.614.534.534,0,0,1-.29.469,1.376,1.376,0,0,1-.7.134H34.46a1.081,1.081,0,0,1-.619-.151.491.491,0,0,1-.218-.43.584.584,0,0,1,.446-.6q.368-.123.43-.151a.346.346,0,0,0,.128-.128.957.957,0,0,0,.134-.569V-11.261a.957.957,0,0,0-.134-.569.346.346,0,0,0-.128-.128q-.061-.028-.43-.151a.584.584,0,0,1-.446-.6.491.491,0,0,1,.218-.43,1.081,1.081,0,0,1,.619-.151h5.256Zm3.426,7.767a9.56,9.56,0,0,1,1.579.346,3.783,3.783,0,0,1,1,.513,2.411,2.411,0,0,1,.72.826,2.16,2.16,0,0,1,.251,1.016v2.31q0,.357.234.357a.23.23,0,0,0,.151-.05,1.3,1.3,0,0,0,.173-.2.753.753,0,0,1,.569-.379.536.536,0,0,1,.379.2.592.592,0,0,1,.19.4,1.624,1.624,0,0,1-.329.843,3.849,3.849,0,0,1-.82.887,2.922,2.922,0,0,1-.993.53,4.382,4.382,0,0,1-1.261.162,3.072,3.072,0,0,1-2.3-.843,3.213,3.213,0,0,1-.826-2.349V-2.824q0-.625-.011-.725a1.515,1.515,0,0,0-.312-.77,1.338,1.338,0,0,0-.926-.458V-5.971a1.7,1.7,0,0,0,.859-.312,1.051,1.051,0,0,0,.307-.458,2.6,2.6,0,0,0,.084-.759v-2.957a1.676,1.676,0,0,0-.273-1.049,1.88,1.88,0,0,0-.988-.547v-1.239h.29q1.239,0,2.109.089a4.657,4.657,0,0,1,2.31.848A3.41,3.41,0,0,1,46.77-9.4a3.533,3.533,0,0,1-.982,2.578,3.413,3.413,0,0,1-.965.692A11.861,11.861,0,0,1,43.143-5.525Z" transform="translate(155.75 91.74)" fill="url(#c)"/></g><path d="M-32.139-9.557a.169.169,0,0,1,.164.126,1.081,1.081,0,0,1,.048.366,5.024,5.024,0,0,1-.055.564q-.055.407-.157,1.063l.082.444q-.055.157-.11.369t-.1.465q-.055.287-.1.485t-.086.321q-.055.212-.1.393a2.9,2.9,0,0,0-.065.359q-.048.431-.127.817a5.143,5.143,0,0,1-.209.742q-.089.26-.27.991T-33.68-.13a3.129,3.129,0,0,1-.274.8q-.151.267-.329.267A.178.178,0,0,1-34.412.9a.249.249,0,0,1-.055-.144.269.269,0,0,1,0-.075q0-.041,0-.239a.464.464,0,0,0-.041-.15l.137-.533a1.063,1.063,0,0,0-.034-.191,7.564,7.564,0,0,1,.12-.967q.12-.728.345-1.952.082-.4.157-.882a.346.346,0,0,0-.014-.116.053.053,0,0,0-.055-.034l-.157.068L-34.18-4.4a.729.729,0,0,0-.167.126.363.363,0,0,1-.188.112,2.36,2.36,0,0,1-.379-.044,2.351,2.351,0,0,0-.373-.044.773.773,0,0,0-.321.078,1.571,1.571,0,0,0-.355.235,2.348,2.348,0,0,0-.571.153,1.684,1.684,0,0,0-.441.269l-.205.164a.647.647,0,0,0-.079.339q-.024.291-.024.8a3.518,3.518,0,0,0,.048.684q.048.219.144.219a.2.2,0,0,0,.109-.031.749.749,0,0,0,.116-.1,1.277,1.277,0,0,1,.1-.1.537.537,0,0,0,.089-.106l.055-.007a.069.069,0,0,1,.072.027.18.18,0,0,1,.024.1q-.068.15-.133.274t-.113.205q-.212.322-.417.636a.864.864,0,0,1-.294.253.847.847,0,0,1-.4.089q-.184,0-.276-.5a8.93,8.93,0,0,1-.092-1.492,4.083,4.083,0,0,0-.048-.667,1.607,1.607,0,0,0-.157-.489,1.536,1.536,0,0,1-.143-.315.837.837,0,0,1-.041-.233.474.474,0,0,1,.038-.171.765.765,0,0,1,.113-.191q.089-.109.14-.181a.3.3,0,0,0,.058-.12,2.054,2.054,0,0,0,.079-.287q.038-.178.085-.41a3.5,3.5,0,0,0,.075-.444q.034-.287.048-.69a5.594,5.594,0,0,1,.144-1.161,1.488,1.488,0,0,0,.089-.471l-.041-.171q.014-.143.041-.369t.075-.519a.851.851,0,0,0,.137-.12,1.708,1.708,0,0,0,.157-.195,4.48,4.48,0,0,1,.513-.178.485.485,0,0,1,.369.13.516.516,0,0,1,.123.369.708.708,0,0,1-.038.191q-.038.123-.092.308a3.411,3.411,0,0,0-.133.581q-.072.424-.161,1.087-.062.478-.133.9t-.167.783a.673.673,0,0,0-.021.116.245.245,0,0,0,.034.147.121.121,0,0,0,.1.044q.253-.02.458-.041a2.562,2.562,0,0,0,.472-.15h.526A3.026,3.026,0,0,0-35.232-5a3.01,3.01,0,0,1,.311-.024,1.452,1.452,0,0,1,.291.044,1.469,1.469,0,0,0,.3.044,1.077,1.077,0,0,0,.212-.027,2.307,2.307,0,0,0,.314-.1.48.48,0,0,0,.15-.021q.062-.021.062-.062.034-.089.079-.219t.092-.3q.014-.157.038-.376t.065-.513q.1-.547.14-.9a4.524,4.524,0,0,0,.044-.492.372.372,0,0,0-.014-.1.144.144,0,0,0-.048-.075q-.055-.062-.123-.15a.835.835,0,0,1,.1-.212q.157-.239.267-.4a1.691,1.691,0,0,1,.178-.229,1.917,1.917,0,0,1,.263-.229A2.762,2.762,0,0,1-32.139-9.557Zm.021,7.52a.177.177,0,0,0,.044-.048.127.127,0,0,0,.017-.068,2.369,2.369,0,0,0,.263-.263q.147-.167.332-.393.15-.205.311-.41t.345-.41q.15-.205.3-.427t.311-.434q.273-.13.424-.185a.753.753,0,0,1,.205-.055.194.194,0,0,1,.157.065.285.285,0,0,1,.055.188.478.478,0,0,1-.021.116q-.021.075-.048.164-.048.137-.109.28-.055.239-.13.479t-.144.472q-.068.294-.106.54a3.006,3.006,0,0,0-.038.451,3.106,3.106,0,0,0,.038.567q.038.185.106.164l.171-.1.239-.133q.123-.13.277-.321t.373-.451q.123-.191.253-.376l.113-.13q.065-.075.12-.15a1.439,1.439,0,0,1,.291-.489.5.5,0,0,1,.359-.161.747.747,0,0,1,.284.044.266.266,0,0,1,.147.133.657.657,0,0,1,.034.164,2.75,2.75,0,0,1,.014.308,1.137,1.137,0,0,0,.031.219,1.13,1.13,0,0,1,.031.212.662.662,0,0,0,.089.379.311.311,0,0,0,.273.126.5.5,0,0,0,.13-.021q.075-.021.15-.048l.273.629q-.41.246-.673.373a1.039,1.039,0,0,1-.393.126.86.86,0,0,1-.561-.178,1.029,1.029,0,0,1-.321-.526.526.526,0,0,0-.058-.164,1.007,1.007,0,0,0-.113-.164q-.062.068-.14.164t-.167.191q-.185.226-.369.441t-.376.427a1.666,1.666,0,0,1-.482.407.99.99,0,0,1-.455.126.691.691,0,0,1-.506-.188.953.953,0,0,1-.246-.557q-.062-.355-.082-.554a.865.865,0,0,1-.007-.239,2.037,2.037,0,0,0-.038-.3q-.024-.1-.072-.1l-.041.021-.39.4a.789.789,0,0,1-.068.12q-.048.072-.13.174a1.689,1.689,0,0,0-.1-.253Q-32.009-1.812-32.119-2.037Zm5.688,0a.971.971,0,0,1,.072-.106l.106-.14q.068-.055.178-.157t.246-.239q.123-.137.3-.338l.431-.489q.109-.116.273-.3t.39-.434a1.317,1.317,0,0,1,.41-.335,1.026,1.026,0,0,1,.465-.109.425.425,0,0,1,.362.154.734.734,0,0,1,.116.448,2.962,2.962,0,0,1-.116.6q-.116.444-.362,1.176l-.116.26a.723.723,0,0,0-.055.157.576.576,0,0,0-.014.1.184.184,0,0,0,.048.1.286.286,0,0,0,.065-.055l.072-.082a.939.939,0,0,1,.167-.215q.113-.113.27-.25a1.2,1.2,0,0,1,.161-.229,1.613,1.613,0,0,1,.222-.208.777.777,0,0,0,.072-.089,1.572,1.572,0,0,1,.106-.13,2.279,2.279,0,0,1,.212-.185,3.435,3.435,0,0,1,.287-.2,3.025,3.025,0,0,1,.332-.15.752.752,0,0,1,.256-.055.694.694,0,0,1,.376.1.819.819,0,0,1,.28.321q.137.424.26.786A.948.948,0,0,0-20.392-2a.275.275,0,0,0,.208.1.369.369,0,0,0,.161-.034.428.428,0,0,0,.133-.1l.273.629-.239.2-.239.2a1.078,1.078,0,0,1-.294.2.694.694,0,0,1-.273.058.691.691,0,0,1-.3-.068.661.661,0,0,1-.246-.205.986.986,0,0,1-.137-.2q-.082-.147-.191-.366a2.439,2.439,0,0,1-.2-.236L-22-2.174l-.062-.021a1.053,1.053,0,0,0-.256.123,2.165,2.165,0,0,0-.27.212,2.554,2.554,0,0,1-.444.342.4.4,0,0,0-.184.157,2.843,2.843,0,0,1-.328.424q-.232.26-.58.615-.089.089-.178.174t-.178.167a.52.52,0,0,1-.2.106.945.945,0,0,1-.249.031q-.273,0-.3-.188t-.044-.379q.1-.287.232-.718t.3-1a.263.263,0,0,1,.024-.092q.024-.058.058-.154a1.037,1.037,0,0,0,.047-.154.564.564,0,0,0,.014-.113.091.091,0,0,0-.034-.075.175.175,0,0,0-.109-.027.346.346,0,0,0-.181.082,1.813,1.813,0,0,0-.27.26q-.191.205-.308.321a.874.874,0,0,1-.157.137,1.4,1.4,0,0,0-.161.137l-.208.2-.041.082a.581.581,0,0,1-.089.123,1.689,1.689,0,0,0-.1-.253Q-26.322-1.812-26.431-2.037Zm6.535,0a1.757,1.757,0,0,0,.116-.154q.068-.1.171-.229a2.359,2.359,0,0,0,.205-.2q.116-.126.26-.318.055-.116.133-.256t.181-.332a1.359,1.359,0,0,1,.191-.42,4.08,4.08,0,0,1,.417-.53q.376-.417.786-.889a1.519,1.519,0,0,1,.461-.465,1.022,1.022,0,0,1,.537-.15.317.317,0,0,1,.291.171,1.029,1.029,0,0,1,.1.506.852.852,0,0,1-.167.383,6.767,6.767,0,0,1-.509.663q-.212.253-.444.5t-.458.509q-.1.1-.215.208t-.243.25q-.041.144-.089.321a2.707,2.707,0,0,0,.034.461,1.21,1.21,0,0,0,.1.332q.034.048.147.215t.3.434a1.031,1.031,0,0,0,.116.137,1.612,1.612,0,0,0,.157.137,1.683,1.683,0,0,0,.4-.366q.294-.325.793-.919l.26.629q-.048.055-.181.222t-.325.441q-.219.287-.444.615a.279.279,0,0,0,.065.157q.065.089.161.2a1.791,1.791,0,0,1,.3.533,3.736,3.736,0,0,1,.195.8q-.007.034-.017.109t-.017.171a2.546,2.546,0,0,1-.967,1.572,2.6,2.6,0,0,1-1.671.786,1.493,1.493,0,0,1-.578-.092.57.57,0,0,1-.3-.277,1.476,1.476,0,0,1-.055-.349q-.021-.26-.021-.69a.682.682,0,0,1,.038-.161q.038-.12.126-.325a1.657,1.657,0,0,1,.133-.284q.085-.147.181-.318.1-.144.195-.28t.188-.273l.39-.424a1.392,1.392,0,0,0,.2-.246.4.4,0,0,0,.072-.205q-.232-.321-.465-.615a3.485,3.485,0,0,1-.4-.615,2.088,2.088,0,0,1-.2-.629.5.5,0,0,0-.055-.13q-.157.15-.308.308a1.689,1.689,0,0,0-.1-.253Q-19.787-1.812-19.9-2.037ZM-17.654.834q-.041,0-.188.191t-.4.567q-.144.226-.287.458t-.3.458a1.8,1.8,0,0,0-.157.355,1.5,1.5,0,0,0-.1.355.239.239,0,0,0,.072.191.336.336,0,0,0,.222.062,1.559,1.559,0,0,0,1.08-.571,1.631,1.631,0,0,0,.554-1.1.973.973,0,0,0-.041-.256q-.041-.147-.109-.325A1.25,1.25,0,0,0-17.483.93.23.23,0,0,0-17.654.834Zm1.518-2.871a1.766,1.766,0,0,1,.212-.291,2.564,2.564,0,0,1,.328-.3q.021-.137.041-.27a2.642,2.642,0,0,0,.027-.27,2.023,2.023,0,0,1,.065-.226q.044-.13.1-.28t.167-.376a5.392,5.392,0,0,1,.277-.506q.144-.157.3-.345t.314-.379A1.5,1.5,0,0,1-14.14-5.4a2.079,2.079,0,0,0,.178-.123,1.543,1.543,0,0,1,.185-.048,1.152,1.152,0,0,1,.226-.021.924.924,0,0,1,.277.034.369.369,0,0,1,.174.116.59.59,0,0,1,.092.164,2.183,2.183,0,0,1,.085.267q.021.137.048.3,0-.041-.024.034t-.072.239l-.062.219a2.4,2.4,0,0,1-.431.759,10.035,10.035,0,0,1-.9.984.426.426,0,0,0-.082.12.353.353,0,0,0-.034.154.59.59,0,0,0,.051.253.357.357,0,0,0,.147.164.659.659,0,0,0,.174.082,2.384,2.384,0,0,0,.284.075,2.19,2.19,0,0,0,.485-.089,2.044,2.044,0,0,0,.39-.164q.034-.021.109-.058a.813.813,0,0,0,.15-.1q.089.2.157.355t.109.273a4.137,4.137,0,0,1-.708.578,1.138,1.138,0,0,1-.584.195.784.784,0,0,1-.25.1,1.564,1.564,0,0,1-.332.031,1.238,1.238,0,0,1-.448-.075A.836.836,0,0,1-15.07-.8a.809.809,0,0,1-.137-.2q-.068-.133-.144-.318a1.017,1.017,0,0,0-.116-.222.155.155,0,0,0-.123-.072.214.214,0,0,0-.123.051.881.881,0,0,0-.15.154,1.689,1.689,0,0,0-.1-.253Q-16.027-1.812-16.136-2.037Zm2.188-2.222q-.15,0-.4.393a1.291,1.291,0,0,0-.253.578.08.08,0,0,0,.017.058.106.106,0,0,0,.072.017.141.141,0,0,0,.123-.079l.089-.147q.075-.068.147-.147l.14-.154a.753.753,0,0,0,.123-.191.483.483,0,0,0,.041-.191.182.182,0,0,0-.024-.1A.079.079,0,0,0-13.949-4.259ZM-12.7-2.037q.109-.144.219-.3a6.2,6.2,0,0,0,.817-.79,3.018,3.018,0,0,0,.461-.708l-.068-.328a1.315,1.315,0,0,1,.441-.4,1.139,1.139,0,0,1,.571-.232.586.586,0,0,1,.393.137q.161.137.311.287.075.048.109.075a1.232,1.232,0,0,1,.41.567,2.507,2.507,0,0,1,.137.882,2.249,2.249,0,0,1-.212.783,2.244,2.244,0,0,0-.212.769.068.068,0,0,0,.024.055.1.1,0,0,0,.065.021A.414.414,0,0,0-9.02-1.3a1.811,1.811,0,0,0,.267-.215,3.378,3.378,0,0,1,.438-.393,1.075,1.075,0,0,0,.185-.126q.055.137.13.294t.144.335q-.062.055-.14.13t-.188.171q-.232.171-.6.414t-.892.557A1.246,1.246,0,0,1-10,.007a.86.86,0,0,1-.431-.085.3.3,0,0,1-.144-.277.6.6,0,0,1,.031-.174,1.681,1.681,0,0,1,.085-.215q.041-.089.089-.181a1.515,1.515,0,0,0,.082-.188,6.638,6.638,0,0,0,.229-.8,3.217,3.217,0,0,0,.079-.663,1.1,1.1,0,0,0-.113-.554.433.433,0,0,0-.338-.219,2.015,2.015,0,0,0-.328.232,2.881,2.881,0,0,0-.362.376,5.127,5.127,0,0,1-.355.4,1.226,1.226,0,0,1-.26.212,1.172,1.172,0,0,1-.2.232,2.732,2.732,0,0,1-.362.28l-.041.082a.581.581,0,0,1-.089.123q-.055-.157-.123-.311T-12.7-2.037Zm9.668-5.53-.109-.444q.041-.137.082-.277t.075-.277a.293.293,0,0,1,.14-.147.576.576,0,0,1,.263-.051.991.991,0,0,0,.188-.027.99.99,0,0,1,.181-.027.286.286,0,0,1,.164.1.544.544,0,0,0,.144.109.77.77,0,0,0,.12-.116q.072-.082.174-.219a1.291,1.291,0,0,1,.171-.178.484.484,0,0,1,.178-.1q.111.055.194.089A.156.156,0,0,1-1-9.071a.216.216,0,0,1,.017.1.678.678,0,0,1-.034.147q-.034.113-.1.3t-.117.342a2.1,2.1,0,0,0-.055.212,2.254,2.254,0,0,0-.161.284.567.567,0,0,0-.058.236,1.551,1.551,0,0,0,.082.407q.082.27.239.673.219.547.444,1.142.2.656.43,1.268T.158-2.789a9.323,9.323,0,0,0,.417.875q.164.287.246.287a.1.1,0,0,0,.1-.079.742.742,0,0,0,.031-.25,1.206,1.206,0,0,1,.017-.178,1.655,1.655,0,0,1,.058-.239q.061-.185.116-.417.068-.355.126-.622t.1-.458a5.049,5.049,0,0,0,.061-.52q.034-.4.068-1.073a1.08,1.08,0,0,1,.024-.191q.024-.123.044-.28T1.6-6.2a1.694,1.694,0,0,0,.014-.2,4.685,4.685,0,0,0-.034-.468,4.685,4.685,0,0,1-.034-.468q.1-.431.191-.841.075-.355.144-.591T2-9.133a1.7,1.7,0,0,1,.267-.427,1.475,1.475,0,0,1,.349-.3h.055a.121.121,0,0,1,.092.027.134.134,0,0,1,.024.089,2.141,2.141,0,0,1-.061.219q.021.123.041.26a2.657,2.657,0,0,1-.048.287Q2.7-8.9,2.69-8.747t-.014.373q0,.082-.021.352T2.581-7.3q-.041.643-.1,1.278T2.362-4.751q-.055.766-.157,1.4A9.791,9.791,0,0,1,1.96-2.222a5.237,5.237,0,0,1-.126.67q-.092.369-.235.8L1.386-.41a2.476,2.476,0,0,1-.43.174A3.3,3.3,0,0,1,.5-.089q-.1,0-.308-.27a5.657,5.657,0,0,1-.485-.824q-.266-.5-.424-.824a2.848,2.848,0,0,1-.2-.489q-.014-.062-.041-.157t-.062-.219q-.137-.3-.345-.745t-.482-1.053a1.892,1.892,0,0,0-.12-.291,3.315,3.315,0,0,0-.174-.3l-.048.021a3.385,3.385,0,0,0-.1.342q-.048.205-.11.492a2.808,2.808,0,0,1-.144.328q-.1.4-.233.861t-.281,1q-.041.178-.082.369t-.1.4l-.123.226q-.027.205-.062.4-.048.157-.12.379t-.175.53a.4.4,0,0,1-.1.236A.314.314,0,0,1-4.023.41a.18.18,0,0,1-.055.058.441.441,0,0,1-.137.058q-.068.014-.1-.072a.7.7,0,0,1-.034-.25,2.047,2.047,0,0,1,.034-.3q.034-.205.1-.52.075-.355.12-.557t.058-.256q.027-.164.062-.431t.075-.615q.014-.089.044-.222t.079-.311q.034-.137.137-.742t.267-1.685Q-3.195-6.494-3.03-7.567Zm5.713,5.53a.789.789,0,0,0,.1-.126q.051-.079.12-.174L3.428-2.7A3.145,3.145,0,0,1,3.722-3q.2-.181.492-.441a.88.88,0,0,1,.113-.174,1.5,1.5,0,0,1,.188-.195q.1-.089.191-.167t.178-.154q.1-.1.195-.205t.188-.2a.973.973,0,0,1,.226-.15.586.586,0,0,1,.253-.055.548.548,0,0,1,.229.038.132.132,0,0,1,.085.106q-.068.157-.144.314l.041.062q.3-.116.472-.171a1,1,0,0,1,.219-.055.912.912,0,0,1,.749.3,1.428,1.428,0,0,1,.25.919,1.625,1.625,0,0,1-.027.273A2.378,2.378,0,0,1,7.53-2.6a1.893,1.893,0,0,1-.147.342.823.823,0,0,1-.147.2.342.342,0,0,0,.062.126.115.115,0,0,0,.089.038A.222.222,0,0,0,7.5-1.935a1.108,1.108,0,0,0,.14-.1q.068.15.133.311t.133.318L7.667-1.2q-.116.1-.246.2a1.2,1.2,0,0,1-.3.188.719.719,0,0,1-.277.058.428.428,0,0,1-.26-.075.52.52,0,0,1-.164-.212,2.22,2.22,0,0,1-.414.414,2.359,2.359,0,0,1-.537.311,2.418,2.418,0,0,1-.311.126A.855.855,0,0,1,4.9-.144a.632.632,0,0,0-.133.027.635.635,0,0,1-.161.027.956.956,0,0,1-.7-.328,1.034,1.034,0,0,1-.314-.731,1.709,1.709,0,0,1,.075-.434A2.116,2.116,0,0,0,3.743-1.9a.106.106,0,0,0-.031-.079.115.115,0,0,0-.085-.031.459.459,0,0,0-.164.1l-.369.294a.562.562,0,0,0-.048.082.581.581,0,0,1-.089.123q-.055-.157-.123-.318T2.683-2.037ZM5.971-3.288a.247.247,0,0,0-.1.072.962.962,0,0,0-.126.161q-.1.157-.219.342a.586.586,0,0,1-.161.126.7.7,0,0,1-.195.065q-.068.007-.144.133a1.8,1.8,0,0,0-.15.366,3.307,3.307,0,0,0-.109.362,1.177,1.177,0,0,0-.034.253.39.39,0,0,0,.1.287.4.4,0,0,0,.294.1A1.025,1.025,0,0,0,5.7-1.2a1.833,1.833,0,0,0,.5-.523L6.4-1.969A.285.285,0,0,0,6.491-2.1a2.231,2.231,0,0,0,.068-.229l.123-.39a2.625,2.625,0,0,0-.116-.325.3.3,0,0,0-.109-.147.579.579,0,0,0-.15-.044Q6.19-3.261,5.971-3.288Zm9.55,1.251a6.852,6.852,0,0,1,.273.629,2.5,2.5,0,0,0-.164.26q-.075.137-.164.28a.781.781,0,0,1-.212.212,1.325,1.325,0,0,1-.3.15q-.246.1-.465.188t-.4.181a1.407,1.407,0,0,1-.427.126l-.441.058a1.535,1.535,0,0,1-.3.051q-.147.01-.27.01A1.183,1.183,0,0,1,12.486.1.332.332,0,0,1,12.37.062l-.12-.082q-.058-.041-.113-.075l-.178-.1q-.082-.048-.12-.274a4.293,4.293,0,0,1-.038-.657,4.318,4.318,0,0,1,.171-.958,4.438,4.438,0,0,0,.171-.876A.9.9,0,0,0,12.13-3.1a.924.924,0,0,1-.014-.14,6.185,6.185,0,0,1,.133-.872,5.858,5.858,0,0,0,.133-.947.2.2,0,0,0-.1-.188.189.189,0,0,1-.1-.174,2.816,2.816,0,0,1,.027-.369,3.353,3.353,0,0,1,.1-.451q.055-.2.1-.4t.1-.393q.048-.225.1-.458t.085-.451a3.373,3.373,0,0,1,.13-.369q.089-.219.212-.5.062-.137.109-.256l.1-.256a.606.606,0,0,1,.157-.195,1.113,1.113,0,0,1,.253-.154,1.868,1.868,0,0,1,.219-.072A.664.664,0,0,1,14-9.762a.3.3,0,0,1,.27.126.7.7,0,0,1,.085.386q0,.082-.01.188a1.292,1.292,0,0,1-.051.243q-.027.144-.051.246t-.038.164q-.007.164-.021.3t-.034.253q-.041.082-.109.2-.048.321-.079.537a2.5,2.5,0,0,0-.031.3,2.344,2.344,0,0,1-.147.721,2.27,2.27,0,0,0-.147.66,1.206,1.206,0,0,1-.034.25q-.034.154-.1.366-.075.287-.12.444t-.058.191q-.014.1-.031.239t-.051.321q-.157.745-.236,1.234a5.075,5.075,0,0,0-.079.735,1,1,0,0,0,.048.349q.048.123.144.123a4.1,4.1,0,0,0,.872-.1,6.242,6.242,0,0,0,.919-.28.427.427,0,0,0,.106-.027l.106-.041a.9.9,0,0,0,.123-.178,1.271,1.271,0,0,0,.157-.113A.815.815,0,0,0,15.521-2.037Zm-.007,0a.789.789,0,0,0,.1-.126q.051-.079.12-.174l.526-.362a3.145,3.145,0,0,1,.294-.3q.2-.181.492-.441a.88.88,0,0,1,.113-.174,1.5,1.5,0,0,1,.188-.195q.1-.089.191-.167t.178-.154q.1-.1.195-.205t.188-.2a.973.973,0,0,1,.226-.15.586.586,0,0,1,.253-.055.548.548,0,0,1,.229.038.132.132,0,0,1,.085.106q-.068.157-.144.314l.041.062q.3-.116.472-.171a1,1,0,0,1,.219-.055.912.912,0,0,1,.749.3,1.428,1.428,0,0,1,.25.919,1.625,1.625,0,0,1-.027.273,2.378,2.378,0,0,1-.089.342,1.893,1.893,0,0,1-.147.342.823.823,0,0,1-.147.2.342.342,0,0,0,.062.126.115.115,0,0,0,.089.038.222.222,0,0,0,.113-.034,1.108,1.108,0,0,0,.14-.1q.068.15.133.311t.133.318L20.5-1.2q-.116.1-.246.2a1.2,1.2,0,0,1-.3.188.719.719,0,0,1-.277.058.428.428,0,0,1-.26-.075.52.52,0,0,1-.164-.212,2.22,2.22,0,0,1-.414.414,2.359,2.359,0,0,1-.537.311,2.418,2.418,0,0,1-.311.126.855.855,0,0,1-.256.044.632.632,0,0,0-.133.027.635.635,0,0,1-.161.027.956.956,0,0,1-.7-.328,1.034,1.034,0,0,1-.314-.731,1.709,1.709,0,0,1,.075-.434,2.116,2.116,0,0,0,.075-.318.106.106,0,0,0-.031-.079.115.115,0,0,0-.085-.031.459.459,0,0,0-.164.1l-.369.294a.562.562,0,0,0-.048.082.581.581,0,0,1-.089.123q-.055-.157-.123-.318T15.514-2.037ZM18.8-3.288a.247.247,0,0,0-.1.072.962.962,0,0,0-.126.161q-.1.157-.219.342a.586.586,0,0,1-.161.126A.7.7,0,0,1,18-2.522q-.068.007-.144.133a1.8,1.8,0,0,0-.15.366,3.307,3.307,0,0,0-.109.362,1.177,1.177,0,0,0-.034.253.39.39,0,0,0,.1.287.4.4,0,0,0,.294.1,1.025,1.025,0,0,0,.578-.174,1.833,1.833,0,0,0,.5-.523l.205-.246a.285.285,0,0,0,.089-.133,2.231,2.231,0,0,0,.068-.229l.123-.39a2.624,2.624,0,0,0-.116-.325.3.3,0,0,0-.109-.147.579.579,0,0,0-.15-.044Q19.021-3.261,18.8-3.288Zm1.654,1.251a.971.971,0,0,1,.072-.106l.106-.14q.068-.055.178-.157t.246-.239q.123-.137.3-.338l.431-.489q.109-.116.273-.3t.39-.434a1.317,1.317,0,0,1,.41-.335,1.026,1.026,0,0,1,.465-.109.425.425,0,0,1,.362.154.734.734,0,0,1,.116.448,2.962,2.962,0,0,1-.116.6q-.116.444-.362,1.176l-.116.26a.723.723,0,0,0-.055.157.576.576,0,0,0-.014.1.184.184,0,0,0,.048.1.286.286,0,0,0,.065-.055l.072-.082a.939.939,0,0,1,.167-.215q.113-.113.27-.25a1.2,1.2,0,0,1,.161-.229,1.613,1.613,0,0,1,.222-.208.777.777,0,0,0,.072-.089,1.572,1.572,0,0,1,.106-.13,2.279,2.279,0,0,1,.212-.185,3.435,3.435,0,0,1,.287-.2,3.025,3.025,0,0,1,.332-.15.752.752,0,0,1,.256-.055.694.694,0,0,1,.376.1.819.819,0,0,1,.28.321q.137.424.26.786A.948.948,0,0,0,26.5-2a.275.275,0,0,0,.208.1.369.369,0,0,0,.161-.034.428.428,0,0,0,.133-.1l.273.629-.239.2-.239.2a1.078,1.078,0,0,1-.294.2.694.694,0,0,1-.273.058.691.691,0,0,1-.3-.068.661.661,0,0,1-.246-.205.986.986,0,0,1-.137-.2q-.082-.147-.191-.366a2.439,2.439,0,0,1-.2-.236l-.263-.345-.062-.021a1.053,1.053,0,0,0-.256.123,2.165,2.165,0,0,0-.27.212,2.554,2.554,0,0,1-.444.342.4.4,0,0,0-.184.157,2.843,2.843,0,0,1-.328.424q-.232.26-.58.615-.089.089-.178.174t-.178.167a.52.52,0,0,1-.2.106.945.945,0,0,1-.249.031q-.273,0-.3-.188T21.615-.41q.1-.287.232-.718t.3-1a.263.263,0,0,1,.024-.092q.024-.058.058-.154a1.037,1.037,0,0,0,.047-.154.564.564,0,0,0,.014-.113.091.091,0,0,0-.034-.075.175.175,0,0,0-.109-.027.346.346,0,0,0-.181.082,1.813,1.813,0,0,0-.27.26q-.191.205-.308.321a.874.874,0,0,1-.157.137,1.4,1.4,0,0,0-.161.137l-.208.2-.041.082a.581.581,0,0,1-.089.123,1.689,1.689,0,0,0-.1-.253Q20.566-1.812,20.457-2.037Zm6.535,0a1.757,1.757,0,0,0,.116-.154q.068-.1.171-.229a2.359,2.359,0,0,0,.205-.2q.116-.126.26-.318.055-.116.133-.256t.181-.332a1.359,1.359,0,0,1,.191-.42,4.08,4.08,0,0,1,.417-.53q.376-.417.786-.889a1.519,1.519,0,0,1,.461-.465,1.022,1.022,0,0,1,.537-.15.317.317,0,0,1,.291.171,1.029,1.029,0,0,1,.1.506.852.852,0,0,1-.167.383,6.767,6.767,0,0,1-.509.663q-.212.253-.444.5t-.458.509q-.1.1-.215.208t-.243.25q-.041.144-.089.321a2.707,2.707,0,0,0,.034.461,1.21,1.21,0,0,0,.1.332q.034.048.147.215t.3.434a1.031,1.031,0,0,0,.116.137,1.612,1.612,0,0,0,.157.137,1.683,1.683,0,0,0,.4-.366q.294-.325.793-.919l.26.629q-.048.055-.181.222t-.325.441q-.219.287-.444.615a.279.279,0,0,0,.065.157q.065.089.161.2a1.791,1.791,0,0,1,.3.533,3.736,3.736,0,0,1,.195.8q-.007.034-.017.109t-.017.171A2.546,2.546,0,0,1,29.8,3.411a2.6,2.6,0,0,1-1.671.786,1.493,1.493,0,0,1-.578-.092.57.57,0,0,1-.3-.277,1.476,1.476,0,0,1-.055-.349q-.021-.26-.021-.69a.682.682,0,0,1,.038-.161q.038-.12.126-.325a1.657,1.657,0,0,1,.133-.284q.085-.147.181-.318.1-.144.195-.28t.188-.273l.39-.424a1.392,1.392,0,0,0,.2-.246.4.4,0,0,0,.072-.205q-.232-.321-.465-.615a3.485,3.485,0,0,1-.4-.615,2.088,2.088,0,0,1-.2-.629.5.5,0,0,0-.055-.13q-.157.15-.308.308a1.689,1.689,0,0,0-.1-.253Q27.1-1.812,26.992-2.037ZM29.234.834q-.041,0-.188.191t-.4.567q-.144.226-.287.458t-.3.458a1.8,1.8,0,0,0-.157.355,1.5,1.5,0,0,0-.1.355.239.239,0,0,0,.072.191.336.336,0,0,0,.222.062,1.559,1.559,0,0,0,1.08-.571,1.631,1.631,0,0,0,.554-1.1.973.973,0,0,0-.041-.256q-.041-.147-.109-.325A1.25,1.25,0,0,0,29.4.93.23.23,0,0,0,29.234.834Zm1.518-2.871a1.766,1.766,0,0,1,.212-.291,2.564,2.564,0,0,1,.328-.3q.021-.137.041-.27a2.642,2.642,0,0,0,.027-.27,2.023,2.023,0,0,1,.065-.226q.044-.13.1-.28t.167-.376a5.393,5.393,0,0,1,.277-.506q.144-.157.3-.345t.314-.379a1.5,1.5,0,0,1,.164-.116,2.079,2.079,0,0,0,.178-.123,1.543,1.543,0,0,1,.185-.048,1.152,1.152,0,0,1,.226-.021.924.924,0,0,1,.277.034.369.369,0,0,1,.174.116.59.59,0,0,1,.092.164,2.183,2.183,0,0,1,.085.267q.021.137.048.3,0-.041-.024.034t-.072.239l-.062.219a2.4,2.4,0,0,1-.431.759,10.035,10.035,0,0,1-.9.984.426.426,0,0,0-.082.12.353.353,0,0,0-.034.154.59.59,0,0,0,.051.253.357.357,0,0,0,.147.164.659.659,0,0,0,.174.082,2.384,2.384,0,0,0,.284.075,2.19,2.19,0,0,0,.485-.089,2.044,2.044,0,0,0,.39-.164q.034-.021.109-.058a.813.813,0,0,0,.15-.1q.089.2.157.355t.109.273a4.137,4.137,0,0,1-.708.578,1.138,1.138,0,0,1-.584.195.784.784,0,0,1-.25.1,1.564,1.564,0,0,1-.332.031,1.238,1.238,0,0,1-.448-.075A.836.836,0,0,1,31.818-.8a.809.809,0,0,1-.137-.2q-.068-.133-.144-.318a1.017,1.017,0,0,0-.116-.222.155.155,0,0,0-.123-.072.213.213,0,0,0-.123.051.881.881,0,0,0-.15.154,1.689,1.689,0,0,0-.1-.253Q30.861-1.812,30.751-2.037Zm2.188-2.222q-.15,0-.4.393a1.291,1.291,0,0,0-.253.578.08.08,0,0,0,.017.058.106.106,0,0,0,.072.017.141.141,0,0,0,.123-.079l.089-.147q.075-.068.147-.147l.14-.154a.753.753,0,0,0,.123-.191.483.483,0,0,0,.041-.191.182.182,0,0,0-.024-.1A.079.079,0,0,0,32.939-4.259ZM34.19-2.037q.109-.144.219-.3a6.2,6.2,0,0,0,.817-.79,3.018,3.018,0,0,0,.461-.708l-.068-.328a1.315,1.315,0,0,1,.441-.4A1.139,1.139,0,0,1,36.63-4.8a.586.586,0,0,1,.393.137q.161.137.311.287.075.048.109.075a1.232,1.232,0,0,1,.41.567,2.507,2.507,0,0,1,.137.882,2.249,2.249,0,0,1-.212.783,2.244,2.244,0,0,0-.212.769.068.068,0,0,0,.024.055.1.1,0,0,0,.065.021.414.414,0,0,0,.212-.079,1.811,1.811,0,0,0,.267-.215,3.378,3.378,0,0,1,.438-.393,1.075,1.075,0,0,0,.185-.126q.055.137.13.294t.144.335q-.062.055-.14.13t-.188.171q-.232.171-.6.414T37.2-.137a1.246,1.246,0,0,1-.314.144.86.86,0,0,1-.431-.085.3.3,0,0,1-.144-.277.6.6,0,0,1,.031-.174,1.681,1.681,0,0,1,.085-.215q.041-.089.089-.181a1.515,1.515,0,0,0,.082-.188,6.638,6.638,0,0,0,.229-.8,3.217,3.217,0,0,0,.079-.663,1.1,1.1,0,0,0-.113-.554.433.433,0,0,0-.338-.219,2.015,2.015,0,0,0-.328.232,2.881,2.881,0,0,0-.362.376,5.127,5.127,0,0,1-.355.4,1.226,1.226,0,0,1-.26.212,1.172,1.172,0,0,1-.2.232,2.732,2.732,0,0,1-.362.28l-.041.082a.581.581,0,0,1-.089.123q-.055-.157-.123-.311T34.19-2.037Z" transform="translate(153.882 100.618)" fill="#838181"/></g><g transform="translate(48.655 99.022)" fill="#fff" stroke="#000" stroke-width="1" opacity="0"><ellipse cx="17.142" cy="1.143" rx="17.142" ry="1.143" stroke="none"/><ellipse cx="17.142" cy="1.143" rx="16.642" ry="0.643" fill="none"/></g></g><g transform="translate(-4.87 69.449)" fill="#fff"><path d="M 166.8587951660156 11.05059051513672 C 166.8827209472656 10.46419048309326 166.8925323486328 9.711428642272949 166.7802276611328 8.977378845214844 C 166.7375946044922 8.591161727905273 166.6157379150391 8.251822471618652 166.5080871582031 7.952018737792969 L 166.4942321777344 7.913380146026611 C 166.4498291015625 7.765718460083008 166.3838653564453 7.652167797088623 166.3304443359375 7.560198783874512 C 166.3049774169922 7.516368865966797 166.2830047607422 7.478518962860107 166.269775390625 7.447818756103516 L 166.2450103759766 7.3903489112854 L 166.2068481445313 7.34074878692627 L 165.8840637207031 6.921271800994873 C 165.8352203369141 6.846601963043213 165.7905883789063 6.786409378051758 165.7508544921875 6.732818603515625 C 165.6790313720703 6.635978698730469 165.622314453125 6.559478759765625 165.5448150634766 6.401888847351074 L 165.542724609375 6.397598743438721 L 165.54052734375 6.393358707427979 C 165.4302978515625 6.17957878112793 165.2975616455078 5.908308982849121 165.2492065429688 5.706538677215576 L 165.2429962158203 5.680628776550293 L 165.2340545654297 5.655529022216797 C 165.0863494873047 5.240179061889648 165.0768280029297 4.794078826904297 165.067626953125 4.362668991088867 L 165.0670928955078 4.337501525878906 C 165.0755615234375 3.631606340408325 165.2119750976563 2.934241771697998 165.4838409423828 2.208390474319458 C 165.4573974609375 2.845020532608032 165.4457092285156 3.589197635650635 165.5464782714844 4.317938804626465 C 165.5936584472656 4.680975914001465 165.6857604980469 5.054595470428467 165.8126373291016 5.396125316619873 C 165.8589019775391 5.554674625396729 165.9181976318359 5.665898323059082 165.9620361328125 5.748138904571533 C 165.9728088378906 5.768366813659668 165.9825744628906 5.786668300628662 165.9904327392578 5.802547454833984 C 166.0420989990234 5.946245670318604 166.1446990966797 6.074331760406494 166.2609100341797 6.219429016113281 C 166.2866973876953 6.251614570617676 166.31298828125 6.284435272216797 166.3358154296875 6.314065456390381 C 166.3469848632813 6.334999084472656 166.3595886230469 6.355037689208984 166.3735198974609 6.374062538146973 L 166.3733215332031 6.374218940734863 L 166.3902587890625 6.397368907928467 L 166.4498443603516 6.479468822479248 L 166.5634765625 6.637357711791992 C 166.5899047851563 6.676927089691162 166.6174163818359 6.715848445892334 166.6449890136719 6.754718780517578 C 166.6864166259766 6.813140869140625 166.7257232666016 6.868560791015625 166.7533874511719 6.917875289916992 C 166.7904815673828 6.999584197998047 166.8292846679688 7.077235221862793 166.8668823242188 7.152498722076416 C 166.9404754638672 7.299768924713135 167.0099792480469 7.438868999481201 167.0433197021484 7.564609050750732 L 167.0480346679688 7.582438945770264 L 167.0540771484375 7.599878787994385 C 167.1863250732422 7.982318878173828 167.2533874511719 8.427898406982422 167.2533874511719 8.924239158630371 L 167.2533874511719 8.933558464050293 L 167.2537384033203 8.942869186401367 C 167.2694854736328 9.364998817443848 167.1973266601563 9.765889167785645 167.1220855712891 10.14030838012695 C 167.0661926269531 10.4291524887085 166.9821319580078 10.71981430053711 166.8587951660156 11.05059051513672 Z" stroke="none"/><path d="M 165.9414367675781 6.079048633575439 C 165.9591217041016 6.114148139953613 165.9742736816406 6.143535614013672 165.9849395751953 6.164208889007568 L 165.9893035888672 6.172698974609375 L 165.9935150146484 6.181268692016602 C 166.0509796142578 6.298119068145752 166.0870361328125 6.346738815307617 166.1524810791016 6.435009002685547 C 166.1629486083984 6.449132442474365 166.1740112304688 6.46405029296875 166.1856079101563 6.479851245880127 L 166.2737121582031 6.429723739624023 L 166.718505859375 6.079048633575439 L 165.9414367675781 6.079048633575439 M 166.1647491455078 -9.5367431640625e-07 C 166.1647491455078 -9.5367431640625e-07 166.0614013671875 0.9239892959594727 165.9850463867188 2.190279006958008 C 165.9579315185547 2.82481861114502 165.9447174072266 3.547658920288086 166.0417633056641 4.249448776245117 C 166.0869750976563 4.597249031066895 166.1746063232422 4.938959121704102 166.2880554199219 5.239978790283203 C 166.3359680175781 5.413998603820801 166.4071197509766 5.507088661193848 166.4568939208984 5.619818687438965 C 166.4789276123047 5.716999053955078 166.6867980957031 5.937098979949951 166.7913513183594 6.089938640594482 L 166.8147735595703 6.12186861038208 L 166.8197631835938 6.130638599395752 C 166.7964630126953 6.102218627929688 166.7850494384766 6.088658809661865 166.7769165039063 6.079068660736084 L 166.7938385009766 6.102218627929688 L 166.8544616699219 6.185719013214111 L 166.9747314453125 6.35283899307251 C 167.0503234863281 6.466979026794434 167.1371917724609 6.574328899383545 167.2014923095703 6.695248603820801 C 167.3123321533203 6.943178653717041 167.4585113525391 7.179638862609863 167.526611328125 7.43644905090332 C 167.7004699707031 7.939198970794678 167.7533874511719 8.456809043884277 167.7533874511719 8.924238204956055 C 167.7710723876953 9.398448944091797 167.6928558349609 9.837928771972656 167.6122894287109 10.23881912231445 C 167.5341949462891 10.64239883422852 167.4132843017578 11.00445938110352 167.2891082763672 11.32582855224609 C 166.7914581298828 12.61936855316162 166.1659393310547 13.27355861663818 166.1659393310547 13.27355861663818 C 166.1659393310547 13.27355861663818 166.2792663574219 12.35097885131836 166.3568115234375 11.08737850189209 C 166.3839263916016 10.45762825012207 166.3914031982422 9.734088897705078 166.2843475341797 9.042469024658203 C 166.2471618652344 8.690458297729492 166.1267852783203 8.370498657226563 166.0185699462891 8.068188667297363 C 165.9731292724609 7.907279014587402 165.8729095458984 7.790328979492188 165.8105773925781 7.645668983459473 L 165.4754638671875 7.210158824920654 C 165.3450012207031 7.007029056549072 165.244140625 6.923528671264648 165.0961303710938 6.622509002685547 C 164.9556884765625 6.350148677825928 164.8215484619141 6.067488670349121 164.7629699707031 5.823068618774414 C 164.5839233398438 5.319618701934814 164.5770721435547 4.805998802185059 164.5670318603516 4.339968681335449 C 164.5770721435547 3.397619247436523 164.7982177734375 2.593849182128906 165.0469970703125 1.950538635253906 C 165.5447540283203 0.6610889434814453 166.1647491455078 -9.5367431640625e-07 166.1647491455078 -9.5367431640625e-07 Z M 166.7772521972656 6.079046249389648 C 166.7772521972656 6.078062534332275 166.7689514160156 6.067575454711914 166.7686309814453 6.067574024200439 C 166.7689514160156 6.067575454711914 166.7772521972656 6.078062534332275 166.7772521972656 6.079046249389648 C 166.7772521972656 6.079094886779785 166.7772369384766 6.07912015914917 166.7771911621094 6.07912015914917 C 166.7772369384766 6.07912015914917 166.7772521972656 6.079094886779785 166.7772521972656 6.079046249389648 Z" stroke="none" fill="#ff7474"/></g><g transform="translate(-19.699 69.449)" fill="#fff"><path d="M 166.8059997558594 10.95391178131104 C 166.8262329101563 10.38332080841064 166.8292236328125 9.673004150390625 166.7264099121094 8.979513168334961 C 166.6853485107422 8.594772338867188 166.5675354003906 8.256030082702637 166.4634704589844 7.956789016723633 L 166.449951171875 7.917863368988037 C 166.4072418212891 7.771094799041748 166.343505859375 7.657823085784912 166.2919006347656 7.566088676452637 C 166.2671508789063 7.522099018096924 166.2457733154297 7.484118938446045 166.2327880859375 7.452998638153076 L 166.2090759277344 7.396238803863525 L 166.1723327636719 7.346919059753418 L 165.8596954345703 6.9273362159729 C 165.8124237060547 6.852702617645264 165.7691955566406 6.792519569396973 165.730712890625 6.738948822021484 C 165.6611022949219 6.642018795013428 165.6061096191406 6.56545877456665 165.5308837890625 6.407518863677979 L 165.5288696289063 6.403288841247559 L 165.5267791748047 6.399098873138428 C 165.4197998046875 6.184908866882324 165.2909698486328 5.913008689880371 165.2438354492188 5.71000862121582 L 165.2379760742188 5.684748649597168 L 165.2295379638672 5.660248756408691 C 165.0858306884766 5.243038654327393 165.0765686035156 4.795858860015869 165.0676116943359 4.363399028778076 L 165.0670623779297 4.337401866912842 C 165.0749206542969 3.662665605545044 165.1956481933594 2.9958336353302 165.4355010986328 2.30493426322937 C 165.4127655029297 2.919060707092285 165.4071655273438 3.624543905258179 165.4997406005859 4.315818786621094 C 165.5453643798828 4.678170680999756 165.6343994140625 5.050997257232666 165.7570190429688 5.39174222946167 C 165.8015594482422 5.549446582794189 165.8588104248047 5.660329341888428 165.9011383056641 5.742298603057861 C 165.9116821289063 5.76271915435791 165.9212188720703 5.781189441680908 165.9289093017578 5.797257423400879 C 165.9784545898438 5.94003438949585 166.0778503417969 6.068157196044922 166.1904602050781 6.213328838348389 C 166.2154388427734 6.245520114898682 166.2409057617188 6.278341293334961 166.2630157470703 6.307974338531494 C 166.2736663818359 6.328615188598633 166.2857208251953 6.348431587219238 166.2990264892578 6.367273807525635 L 166.2988586425781 6.367398738861084 L 166.3152008056641 6.390548706054688 L 166.3734588623047 6.473368644714355 L 166.4835968017578 6.631412982940674 C 166.5091400146484 6.67087459564209 166.5357055664063 6.709693908691406 166.5623321533203 6.74846887588501 C 166.6025543212891 6.807005882263184 166.6407165527344 6.862554550170898 166.6676177978516 6.912110328674316 C 166.7035217285156 6.993801593780518 166.7411041259766 7.071475982666016 166.7775421142578 7.146769046783447 C 166.8490295410156 7.294478893280029 166.9165344238281 7.43398904800415 166.9491271972656 7.560858726501465 L 166.9535827636719 7.578218936920166 L 166.9592895507813 7.595228672027588 C 167.0878448486328 7.979138851165771 167.1530303955078 8.426279067993164 167.1530303955078 8.924239158630371 L 167.1530303955078 8.933259010314941 L 167.1533508300781 8.942278861999512 C 167.1686706542969 9.366389274597168 167.0986328125 9.768128395080566 167.0256042480469 10.14326858520508 C 166.9768981933594 10.40301132202148 166.9062957763672 10.66400241851807 166.8059997558594 10.95391178131104 Z" stroke="none"/><path d="M 165.9263610839844 6.079048633575439 C 165.9458923339844 6.119232654571533 165.962646484375 6.152783393859863 165.9740905761719 6.175688743591309 L 165.978271484375 6.18406867980957 L 165.9822998046875 6.19252872467041 C 166.0382995605469 6.310098648071289 166.0732879638672 6.358819007873535 166.1368103027344 6.447258949279785 C 166.1380004882813 6.448907852172852 166.1391906738281 6.450565338134766 166.1403961181641 6.452236652374268 L 166.2063751220703 6.416125297546387 L 166.6509246826172 6.079048633575439 L 165.9263610839844 6.079048633575439 M 166.1144104003906 -9.5367431640625e-07 C 166.1144104003906 -9.5367431640625e-07 166.0143280029297 0.9239892959594727 165.9403991699219 2.190279006958008 C 165.9141387939453 2.82481861114502 165.9013366699219 3.547658920288086 165.9953308105469 4.249448776245117 C 166.0391235351563 4.597249031066895 166.1239776611328 4.938959121704102 166.2338409423828 5.239978790283203 C 166.2802581787109 5.413998603820801 166.3491668701172 5.507088661193848 166.3973693847656 5.619818687438965 C 166.4187164306641 5.716999053955078 166.6200408935547 5.937098979949951 166.7212982177734 6.089938640594482 L 166.7440032958984 6.12186861038208 L 166.7488098144531 6.130638599395752 C 166.7262573242188 6.102218627929688 166.7151794433594 6.088658809661865 166.7073516845703 6.079068660736084 L 166.7236938476563 6.102218627929688 L 166.7824249267578 6.185719013214111 L 166.8989105224609 6.35283899307251 C 166.9721221923828 6.466979026794434 167.0562438964844 6.574328899383545 167.1185150146484 6.695248603820801 C 167.2258758544922 6.943178653717041 167.367431640625 7.179638862609863 167.4334106445313 7.43644905090332 C 167.6017608642578 7.939198970794678 167.6530303955078 8.456809043884277 167.6530303955078 8.924238204956055 C 167.6701507568359 9.398448944091797 167.5944366455078 9.837928771972656 167.5163879394531 10.23881912231445 C 167.4407348632813 10.64239883422852 167.3236694335938 11.00445938110352 167.203369140625 11.32582855224609 C 166.7214050292969 12.61936855316162 166.1155700683594 13.27355861663818 166.1155700683594 13.27355861663818 C 166.1155700683594 13.27355861663818 166.2253265380859 12.35097885131836 166.3004455566406 11.08737850189209 C 166.3267211914063 10.45762825012207 166.3339691162109 9.734088897705078 166.2302703857422 9.042469024658203 C 166.1942596435547 8.690458297729492 166.0776672363281 8.370498657226563 165.9728698730469 8.068188667297363 C 165.9288482666016 7.907279014587402 165.8318023681641 7.790328979492188 165.7713928222656 7.645668983459473 L 165.4468841552734 7.210158824920654 C 165.3205261230469 7.007029056549072 165.2228240966797 6.923528671264648 165.0794677734375 6.622509002685547 C 164.9434356689453 6.350148677825928 164.8135223388672 6.067488670349121 164.7567901611328 5.823068618774414 C 164.5833892822266 5.319618701934814 164.5767669677734 4.805998802185059 164.5670013427734 4.339968681335449 C 164.5767669677734 3.397619247436523 164.7909393310547 2.593849182128906 165.0318908691406 1.950538635253906 C 165.5139617919922 0.6610889434814453 166.1144104003906 -9.5367431640625e-07 166.1144104003906 -9.5367431640625e-07 Z M 166.7076416015625 6.079046249389648 C 166.7076416015625 6.078062534332275 166.6996002197266 6.067575454711914 166.6992950439453 6.067574024200439 C 166.6996002197266 6.067575454711914 166.7076416015625 6.078062534332275 166.7076416015625 6.079046249389648 C 166.7076416015625 6.079094886779785 166.7076263427734 6.07912015914917 166.7075805664063 6.07912015914917 C 166.7076263427734 6.07912015914917 166.7076416015625 6.079094886779785 166.7076416015625 6.079046249389648 Z" stroke="none" fill="#ff7474"/></g><g transform="translate(-34.528 69.449)" fill="#fff"><path d="M 166.7129821777344 10.75734996795654 C 166.7257690429688 10.225510597229 166.7183990478516 9.597466468811035 166.6324920654297 8.983269691467285 C 166.5940856933594 8.600937843322754 166.4832458496094 8.263083457946777 166.3853454589844 7.964678764343262 L 166.3725280761719 7.925583362579346 C 166.3328094482422 7.780675411224365 166.2730560302734 7.668083667755127 166.2246856689453 7.576928615570068 C 166.201171875 7.532618999481201 166.1808624267578 7.494359016418457 166.1683044433594 7.462478637695313 L 166.1464538574219 7.406949043273926 L 166.1121215820313 7.358129024505615 L 165.8171844482422 6.938551902770996 C 165.7726287841797 6.863959789276123 165.7318572998047 6.803764820098877 165.695556640625 6.750178813934326 C 165.6297607421875 6.653048992156982 165.5777740478516 6.576328754425049 165.5065002441406 6.417628765106201 L 165.5046539306641 6.413518905639648 L 165.5027313232422 6.409448623657227 C 165.4013824462891 6.19429874420166 165.2793121337891 5.921068668365479 165.2344665527344 5.716158866882324 L 165.2291870117188 5.692049026489258 L 165.2215728759766 5.668588638305664 C 165.0848693847656 5.247788906097412 165.0760955810547 4.798449039459229 165.0675964355469 4.363898754119873 L 165.0670776367188 4.337812900543213 C 165.0737152099609 3.726998329162598 165.1671447753906 3.122875928878784 165.3517303466797 2.501904249191284 C 165.3363647460938 3.066621065139771 165.34033203125 3.695379734039307 165.4182281494141 4.312108993530273 C 165.4611053466797 4.673056602478027 165.5447692871094 5.044313430786133 165.6600189208984 5.383737564086914 C 165.7015991210938 5.540069580078125 165.7553405761719 5.65040397644043 165.7950439453125 5.731918811798096 C 165.80517578125 5.752702713012695 165.8143157958984 5.771476268768311 165.8217010498047 5.787901878356934 C 165.8675842285156 5.928864479064941 165.9612579345703 6.056907176971436 166.0674896240234 6.202078819274902 C 166.091064453125 6.234303951263428 166.1151123046875 6.267160892486572 166.135986328125 6.296828269958496 C 166.1460571289063 6.317607879638672 166.1575317382813 6.337582588195801 166.1702728271484 6.356635093688965 L 166.1701049804688 6.356749057769775 L 166.1855621337891 6.379899024963379 L 166.2400360107422 6.462038993835449 L 166.3440399169922 6.620240688323975 C 166.3681488037109 6.659753799438477 166.3932495117188 6.698620796203613 166.4183959960938 6.737448692321777 C 166.4564666748047 6.796216011047363 166.4925842285156 6.851948738098145 166.5181427001953 6.901924610137939 C 166.5519714355469 6.983579635620117 166.5874481201172 7.061310768127441 166.6218414306641 7.136658668518066 C 166.6896362304688 7.285138607025146 166.7536468505859 7.425378799438477 166.7848510742188 7.554208755493164 L 166.7888793945313 7.570788860321045 L 166.7940216064453 7.587059020996094 C 166.9160614013672 7.973448753356934 166.9779510498047 8.423338890075684 166.9779510498047 8.924239158630371 L 166.9779510498047 8.932759284973145 L 166.9782409667969 8.941268920898438 C 166.9927825927734 9.368218421936035 166.9264526367188 9.771768569946289 166.8572692871094 10.14850902557373 C 166.822265625 10.34659671783447 166.7752532958984 10.54548168182373 166.7129821777344 10.75734996795654 Z" stroke="none"/><path d="M 165.8973693847656 6.072091102600098 C 165.9204559326172 6.122908115386963 165.9408874511719 6.166311740875244 165.9550628662109 6.196388721466064 L 165.9588928222656 6.20452880859375 L 165.9625854492188 6.212749004364014 C 166.0025939941406 6.301812171936035 166.0312347412109 6.351664543151855 166.0683441162109 6.408333301544189 L 166.068359375 6.40831995010376 L 166.5265655517578 6.078446388244629 L 165.8973693847656 6.072091102600098 M 166.0266418457031 -9.5367431640625e-07 C 166.0266418457031 -9.5367431640625e-07 165.9322357177734 0.9239892959594727 165.8624572753906 2.190279006958008 C 165.8377227783203 2.82481861114502 165.8256378173828 3.547658920288086 165.9142913818359 4.249448776245117 C 165.9556121826172 4.597249031066895 166.0356597900391 4.938959121704102 166.1392822265625 5.239978790283203 C 166.1830749511719 5.413998603820801 166.2480621337891 5.507088661193848 166.2935485839844 5.619818687438965 C 166.3136749267578 5.716999053955078 166.5035858154297 5.937098979949951 166.5990905761719 6.089938640594482 L 166.6204986572266 6.12186861038208 L 166.6250457763672 6.130638599395752 C 166.6037292480469 6.102218627929688 166.5933380126953 6.088658809661865 166.5859069824219 6.079068660736084 L 166.6013641357422 6.102218627929688 L 166.65673828125 6.185719013214111 L 166.7666168212891 6.35283899307251 C 166.8356628417969 6.466979026794434 166.9150390625 6.574328899383545 166.9737701416016 6.695248603820801 C 167.0750274658203 6.943178653717041 167.2085723876953 7.179638862609863 167.2707977294922 7.43644905090332 C 167.4295959472656 7.939198970794678 167.4779510498047 8.456809043884277 167.4779510498047 8.924238204956055 C 167.4941101074219 9.398448944091797 167.4226684570313 9.837928771972656 167.3490447998047 10.23881912231445 C 167.2777252197266 10.64239883422852 167.1672668457031 11.00445938110352 167.0538330078125 11.32582855224609 C 166.5991973876953 12.61936855316162 166.0277404785156 13.27355861663818 166.0277404785156 13.27355861663818 C 166.0277404785156 13.27355861663818 166.1312713623047 12.35097885131836 166.2021026611328 11.08737850189209 C 166.2268676757813 10.45762825012207 166.2337036132813 9.734088897705078 166.1359100341797 9.042469024658203 C 166.1019287109375 8.690458297729492 165.9919738769531 8.370498657226563 165.8930969238281 8.068188667297363 C 165.8515777587891 7.907279014587402 165.7600402832031 7.790328979492188 165.7030792236328 7.645668983459473 L 165.3969421386719 7.210158824920654 C 165.2777709960938 7.007029056549072 165.1856231689453 6.923528671264648 165.0503997802734 6.622509002685547 C 164.9221038818359 6.350148677825928 164.7995300292969 6.067488670349121 164.7460327148438 5.823068618774414 C 164.5824737548828 5.319618701934814 164.5762329101563 4.805998802185059 164.5670318603516 4.339968681335449 C 164.5762329101563 3.397619247436523 164.7782440185547 2.593849182128906 165.0055236816406 1.950538635253906 C 165.4602508544922 0.6610889434814453 166.0266418457031 -9.5367431640625e-07 166.0266418457031 -9.5367431640625e-07 Z M 166.5861968994141 6.079046249389648 C 166.5862121582031 6.078062534332275 166.57861328125 6.067575454711914 166.5783233642578 6.067574024200439 C 166.57861328125 6.067575454711914 166.5862121582031 6.078062534332275 166.5861968994141 6.079046249389648 C 166.5861968994141 6.079094886779785 166.586181640625 6.07912015914917 166.5861358642578 6.07912015914917 C 166.586181640625 6.07912015914917 166.5861968994141 6.079094886779785 166.5861968994141 6.079046249389648 Z" stroke="none" fill="#ff7474"/></g><g transform="matrix(0.839, -0.545, 0.545, 0.839, 115.583, 71.9)" fill="#fff"><path d="M 2.206705331802368 10.72994327545166 C 2.224690675735474 10.15116310119629 2.224261045455933 9.442476272583008 2.127139329910278 8.751131057739258 C 2.087382793426514 8.356810569763184 1.972382068634033 8.007785797119141 1.870808482170105 7.699480056762695 L 1.857527375221252 7.659130096435547 C 1.816704273223877 7.510586261749268 1.755014181137085 7.394793033599854 1.705068469047546 7.301050186157227 C 1.680398464202881 7.254739761352539 1.659098505973816 7.214749813079834 1.645708441734314 7.180880069732666 L 1.623728513717651 7.125279903411865 L 1.589248538017273 7.07643985748291 L 1.282415151596069 6.64163064956665 C 1.236194014549255 6.564521789550781 1.193837881088257 6.502247333526611 1.15613853931427 6.44681978225708 C 1.087278485298157 6.345570087432861 1.032888531684875 6.265600204467773 0.9581884741783142 6.099949836730957 L 0.9563285112380981 6.095829963684082 L 0.954398512840271 6.091740131378174 C 0.848718523979187 5.868269920349121 0.7213885188102722 5.58434009552002 0.6743884682655334 5.370510101318359 L 0.6690784692764282 5.346340179443359 L 0.6613984704017639 5.322810173034668 C 0.5185984969139099 4.885009765625 0.5094484686851501 4.418690204620361 0.5005884766578674 3.967730045318604 L 0.5000514388084412 3.940339088439941 C 0.5074265599250793 3.260740041732788 0.6187387704849243 2.589236259460449 0.8395882844924927 1.895582795143127 C 0.8191272616386414 2.51578164100647 0.8166511058807373 3.221176862716675 0.9042385220527649 3.911669969558716 C 0.9486749768257141 4.284547328948975 1.035447239875793 4.668000221252441 1.155001997947693 5.018538951873779 C 1.197826743125916 5.179096698760986 1.253326654434204 5.292598724365234 1.294328451156616 5.376440048217773 C 1.305097222328186 5.398458957672119 1.314807415008545 5.418324947357178 1.322669744491577 5.435781478881836 C 1.369510293006897 5.579650402069092 1.466234683990479 5.711307048797607 1.575948476791382 5.860650062561035 C 1.600806713104248 5.89448881149292 1.626160144805908 5.92900562286377 1.648152709007263 5.960164070129395 C 1.65840220451355 5.981367588043213 1.670123219490051 6.001771926879883 1.683149695396423 6.021178722381592 L 1.682968497276306 6.021309852600098 L 1.699038505554199 6.045279979705811 L 1.755688548088074 6.130380153656006 L 1.863889336585999 6.29429292678833 C 1.888931512832642 6.335192680358887 1.915009260177612 6.375418186187744 1.941148519515991 6.415599822998047 C 1.981101632118225 6.477025032043457 2.01899528503418 6.535297393798828 2.046006441116333 6.587989807128906 C 2.081143617630005 6.672508716583252 2.118063926696777 6.753079414367676 2.15384840965271 6.831160068511963 C 2.224618434906006 6.985599994659424 2.291458606719971 7.131460189819336 2.324268579483032 7.266319751739502 L 2.32831859588623 7.282949924468994 L 2.333488464355469 7.299260139465332 C 2.460828542709351 7.700850009918213 2.52539849281311 8.168219566345215 2.52539849281311 8.688369750976563 L 2.52539849281311 8.696920394897461 L 2.525688409805298 8.705470085144043 C 2.540868520736694 9.148909568786621 2.47178840637207 9.567709922790527 2.399728536605835 9.958669662475586 C 2.355632305145264 10.20711898803711 2.293264627456665 10.45681953430176 2.206705331802368 10.72994327545166 Z" stroke="none"/><path d="M 1.343497633934021 5.742859840393066 C 1.368694424629211 5.798245429992676 1.39106822013855 5.845556259155273 1.406408548355103 5.877989768981934 L 1.410268545150757 5.886159896850586 L 1.413988471031189 5.894400119781494 C 1.457247853279114 5.990338325500488 1.487908959388733 6.043129920959473 1.528198003768921 6.104208946228027 L 1.563238978385925 6.085877895355225 L 2.037327289581299 5.742859840393066 L 1.343497633934021 5.742859840393066 M 2.294698476791382 0 C 2.294698476791382 0 1.418898463249207 0.4060401916503906 1.346388459205627 1.716970443725586 C 1.320678472518921 2.373889923095703 1.308108448982239 3.122220039367676 1.40026843547821 3.848750114440918 C 1.443188548088074 4.208809852600098 1.52638852596283 4.562580108642578 1.634098529815674 4.874210357666016 C 1.679598450660706 5.054360389709473 1.747158527374268 5.150730133056641 1.794428467750549 5.267439842224121 C 1.815328478813171 5.368050098419189 2.01270866394043 5.595900058746338 2.111988544464111 5.75413990020752 L 2.13420844078064 5.787189960479736 L 2.13895845413208 5.79626989364624 C 2.116808414459229 5.766849994659424 2.106008529663086 5.752810001373291 2.098268508911133 5.742879867553711 L 2.114338397979736 5.766849994659424 L 2.17188835144043 5.85329008102417 L 2.286098480224609 6.026299953460693 C 2.357858419418335 6.144460201263428 2.440328598022461 6.25560998916626 2.50139856338501 6.380789756774902 C 2.60662841796875 6.637459754943848 2.745418548583984 6.882259845733643 2.81009840965271 7.148129940032959 C 2.975138425827026 7.668600082397461 3.02539849281311 8.204450607299805 3.02539849281311 8.688369750976563 C 3.042198419570923 9.179300308227539 2.967938423156738 9.634280204772949 2.891448497772217 10.04930019378662 C 2.817298412322998 10.46710968017578 2.702498435974121 10.84193992614746 2.584588527679443 11.17463970184326 C 2.112088441848755 12.51377964019775 0.7210285663604736 13.3300199508667 0.7210285663604736 13.3300199508667 C 0.7210285663604736 13.3300199508667 1.625768542289734 12.23592948913574 1.699368476867676 10.92778015136719 C 1.725118517875671 10.27581977844238 1.732238531112671 9.526769638061523 1.630598545074463 8.810770034790039 C 1.59527850151062 8.44635009765625 1.481008529663086 8.115099906921387 1.378208518028259 7.802139759063721 C 1.335078477859497 7.635550022125244 1.239938497543335 7.514480113983154 1.180728435516357 7.364719867706299 L 0.8625683784484863 6.913859844207764 C 0.7386884689331055 6.703559875488281 0.642918586730957 6.617119789123535 0.5023884773254395 6.305490016937256 C 0.3690485954284668 6.023519992828369 0.2416684627532959 5.730889797210693 0.1860485076904297 5.477859973907471 C 0.01604843139648438 4.956660270690918 0.009568452835083008 4.424920082092285 -1.430511474609375e-06 3.942460060119629 C 0.009568452835083008 2.966890335083008 0.2195384502410889 2.134779930114746 0.4557585716247559 1.468779563903809 C 1.478668451309204 0.006609916687011719 2.294698476791382 0 2.294698476791382 0 Z M 2.098587989807129 5.742856979370117 C 2.098590850830078 5.741838932037354 2.090702772140503 5.730984210968018 2.090400218963623 5.730982780456543 C 2.090702772140503 5.730984210968018 2.098590850830078 5.741838932037354 2.098587989807129 5.742856979370117 C 2.098587989807129 5.742907047271729 2.098568677902222 5.74293327331543 2.098528385162354 5.74293327331543 C 2.098568677902222 5.74293327331543 2.098587989807129 5.742907047271729 2.098587989807129 5.742856979370117 Z" stroke="none" fill="#ff7474"/></g><path d="M165.079,6.623a4.239,4.239,0,0,0,.367.588l.324.436a3.355,3.355,0,0,1,.2.423,4.289,4.289,0,0,1,.257.974,10.951,10.951,0,0,1,.07,2.045c-.075,1.264-.185,2.186-.185,2.186a6.3,6.3,0,0,0,1.087-1.948,6.5,6.5,0,0,0,.313-1.087,5.711,5.711,0,0,0,.137-1.315,4.7,4.7,0,0,0-.219-1.488,5.211,5.211,0,0,0-.315-.741c-.062-.121-.146-.228-.219-.342l-.116-.167-.059-.083-.016-.023.041.052,0-.009-.023-.032a3.136,3.136,0,0,1-.324-.47,2.187,2.187,0,0,1-.163-.38,4.618,4.618,0,0,1-.238-.991,11.965,11.965,0,0,1-.055-2.059c.074-1.266.174-2.19.174-2.19a6.481,6.481,0,0,0-1.082,1.951,6.971,6.971,0,0,0-.465,2.389,4.758,4.758,0,0,0,.19,1.483A3.932,3.932,0,0,0,165.079,6.623Zm1.627-.543s-.02-.027,0,0Z" transform="translate(9.96 69.449)" fill="#ff7474"/><g transform="translate(22.483 69.449)" fill="#fff"><path d="M 166.9591217041016 11.21950149536133 C 166.9613494873047 11.18656444549561 166.9635467529297 11.15331554412842 166.9657287597656 11.1198787689209 L 166.9660491943359 11.11503887176514 L 166.9662628173828 11.11019897460938 C 166.9934692382813 10.51461124420166 167.0087432861328 9.734407424926758 166.88525390625 8.973472595214844 C 166.8395538330078 8.584348678588867 166.7097473144531 8.243751525878906 166.5950775146484 7.942868709564209 L 166.58056640625 7.904778003692627 C 166.5328063964844 7.755415916442871 166.4624633789063 7.641323089599609 166.4054718017578 7.548888683319092 C 166.3786010742188 7.505318641662598 166.3553924560547 7.467689037322998 166.3416595458984 7.437658786773682 L 166.3149108886719 7.379189014434814 L 166.2742309570313 7.329378604888916 L 165.9315032958984 6.909749507904053 C 165.8796844482422 6.835105895996094 165.8323364257813 6.774949550628662 165.7901916503906 6.721398830413818 C 165.7140197753906 6.624629020690918 165.6538696289063 6.54818868637085 165.5718994140625 6.391149044036865 L 165.5696105957031 6.386768817901611 L 165.5672454833984 6.382438659667969 C 165.4506683349609 6.169458866119385 165.3103485107422 5.899398803710938 165.2595825195313 5.69981861114502 L 165.2526702880859 5.672688961029053 L 165.2427978515625 5.646498680114746 C 165.0874938964844 5.235058784484863 165.0774230957031 4.791429042816162 165.0676727294922 4.362398624420166 L 165.0671081542969 4.337332725524902 C 165.0764617919922 3.609902620315552 165.2308654785156 2.891186952590942 165.5390625 2.140408754348755 C 165.5529022216797 2.10660982131958 165.5668640136719 2.073248147964478 165.5808868408203 2.040377140045166 C 165.5782928466797 2.079363822937012 165.5757446289063 2.118654012680054 165.5731964111328 2.158348798751831 L 165.5728912353516 2.162988901138306 L 165.5726928710938 2.167628765106201 C 165.5433654785156 2.814328908920288 165.5281524658203 3.576018810272217 165.6376800537109 4.322078704833984 C 165.6879730224609 4.686627864837646 165.7861175537109 5.061868667602539 165.9212646484375 5.404813289642334 C 165.9709167480469 5.564778327941895 166.0341644287109 5.676544189453125 166.0809478759766 5.759208679199219 C 166.0919189453125 5.778592586517334 166.1018829345703 5.796198844909668 166.1099700927734 5.811488628387451 C 166.1645050048828 5.955734252929688 166.2698364257813 6.079616546630859 166.3982696533203 6.23068904876709 C 166.4449005126953 6.2855224609375 166.4930725097656 6.342197895050049 166.5220794677734 6.381863594055176 L 166.5176544189453 6.385558605194092 L 166.5356140136719 6.408709049224854 L 166.5989532470703 6.490898609161377 L 166.7197265625 6.649017810821533 C 166.7477264404297 6.68851900100708 166.7768859863281 6.727371692657471 166.8060913085938 6.766178607940674 C 166.8499298095703 6.824413299560547 166.8915252685547 6.879664897918701 166.9207763671875 6.928676128387451 C 166.9601898193359 7.010468482971191 167.0013580322266 7.088114261627197 167.041259765625 7.163368701934814 C 167.1189575195313 7.309858798980713 167.1923370361328 7.448238849639893 167.2271728515625 7.571969032287598 L 167.232421875 7.590569019317627 L 167.2390747070313 7.60870885848999 C 167.3784790039063 7.988578796386719 167.4491577148438 8.431188583374023 167.4491577148438 8.924239158630371 L 167.4491577148438 8.934139251708984 L 167.4495391845703 8.944028854370117 C 167.4661407470703 9.362998962402344 167.3899230957031 9.761868476867676 167.3104095458984 10.13448905944824 C 167.2457122802734 10.44940853118896 167.1453399658203 10.76649856567383 166.9937591552734 11.13611888885498 C 166.9822845458984 11.16424465179443 166.9707336425781 11.19202613830566 166.9591217041016 11.21950149536133 Z M 166.8847808837891 6.078652858734131 L 166.4131011962891 6.072128772735596 L 166.9129791259766 5.579118728637695 L 166.9129791259766 6.05507755279541 L 166.8847808837891 6.078652858734131 Z" stroke="none"/><path d="M 165.9662322998047 6.069485664367676 C 165.9821929931641 6.099184989929199 165.9958801269531 6.124176502227783 166.0058441162109 6.142368793487549 L 166.0105743408203 6.151028633117676 L 166.0151519775391 6.159788608551025 C 166.0755767822266 6.275548934936523 166.1115112304688 6.321208953857422 166.1830902099609 6.412168979644775 C 166.2104187011719 6.446884632110596 166.2415313720703 6.486416339874268 166.2755126953125 6.531989574432373 L 166.415283203125 6.447363376617432 L 166.8565521240234 6.078478336334229 L 165.9662322998047 6.069485664367676 M 166.2629241943359 -9.5367431640625e-07 C 166.2629241943359 -9.5367431640625e-07 166.1532135009766 0.9239892959594727 166.0721740722656 2.190279006958008 C 166.0434112548828 2.82481861114502 166.0293579101563 3.547658920288086 166.1323852539063 4.249448776245117 C 166.1803741455078 4.597249031066895 166.2733764648438 4.938959121704102 166.3937835693359 5.239978790283203 C 166.4446563720703 5.413998603820801 166.5201873779297 5.507088661193848 166.5730285644531 5.619818687438965 C 166.5964050292969 5.716999053955078 166.8170623779297 5.937098979949951 166.9280242919922 6.089938640594482 L 166.952880859375 6.12186861038208 L 166.9581909179688 6.130638599395752 C 166.9334106445313 6.102218627929688 166.9213409423828 6.088658809661865 166.9127044677734 6.079068660736084 L 166.9306640625 6.102218627929688 L 166.9950103759766 6.185719013214111 L 167.1226654052734 6.35283899307251 C 167.2029113769531 6.466979026794434 167.2950897216797 6.574328899383545 167.3633728027344 6.695248603820801 C 167.4810028076172 6.943178653717041 167.6361541748047 7.179638862609863 167.7084655761719 7.43644905090332 C 167.8929595947266 7.939198970794678 167.9491577148438 8.456809043884277 167.9491577148438 8.924238204956055 C 167.9679412841797 9.398448944091797 167.8849334716797 9.837928771972656 167.7994079589844 10.23881912231445 C 167.7165069580078 10.64239883422852 167.5881652832031 11.00445938110352 167.4563751220703 11.32582855224609 C 166.9281311035156 12.61936855316162 166.2641906738281 13.27355861663818 166.2641906738281 13.27355861663818 C 166.2641906738281 13.27355861663818 166.3844909667969 12.35097885131836 166.4667816162109 11.08737850189209 C 166.4955596923828 10.45762825012207 166.5035095214844 9.734088897705078 166.389892578125 9.042469024658203 C 166.3504028320313 8.690458297729492 166.2226409912109 8.370498657226563 166.1077728271484 8.068188667297363 C 166.0595245361328 7.907279014587402 165.9531555175781 7.790328979492188 165.8869781494141 7.645668983459473 L 165.5312805175781 7.210158824920654 C 165.3928070068359 7.007029056549072 165.2857666015625 6.923528671264648 165.1286468505859 6.622509002685547 C 164.9795684814453 6.350148677825928 164.8371734619141 6.067488670349121 164.7750091552734 5.823068618774414 C 164.5849761962891 5.319618701934814 164.5777282714844 4.805998802185059 164.5670318603516 4.339968681335449 C 164.5777282714844 3.397619247436523 164.8124389648438 2.593849182128906 165.0765075683594 1.950538635253906 C 165.6048431396484 0.6610889434814453 166.2629241943359 -9.5367431640625e-07 166.2629241943359 -9.5367431640625e-07 Z M 166.9130554199219 6.079046249389648 C 166.9130706787109 6.078062534332275 166.9042510986328 6.067575454711914 166.9039154052734 6.067574024200439 C 166.9042510986328 6.067575454711914 166.9130706787109 6.078062534332275 166.9130554199219 6.079046249389648 C 166.9130554199219 6.079094886779785 166.9130249023438 6.07912015914917 166.9129791259766 6.07912015914917 C 166.9130249023438 6.07912015914917 166.9130554199219 6.079094886779785 166.9130554199219 6.079046249389648 Z" stroke="none" fill="#ff7474"/></g></g><g transform="translate(226.5 113.164)"><path d="M131.228,46.038a4.933,4.933,0,0,0,.476.684l.421.507a3.79,3.79,0,0,1,.261.493,4.6,4.6,0,0,1,.334,1.134,11.461,11.461,0,0,1,.09,2.383c-.1,1.472-.24,2.546-.24,2.546a7.2,7.2,0,0,0,1.412-2.269,7.044,7.044,0,0,0,.407-1.265,6,6,0,0,0,.176-1.532,4.932,4.932,0,0,0-.285-1.732,5.757,5.757,0,0,0-.408-.863,4.648,4.648,0,0,0-.286-.4l-.154-.2-.076-.1-.018-.023c.01.012.024.028.054.06l-.009-.01-.027-.037a3.748,3.748,0,0,1-.42-.548,2.358,2.358,0,0,1-.212-.444,4.861,4.861,0,0,1-.309-1.154,12.4,12.4,0,0,1-.073-2.4c.1-1.473.225-2.549.225-2.549a8.145,8.145,0,0,0-2,5.054,5.019,5.019,0,0,0,.245,1.728A4.166,4.166,0,0,0,131.228,46.038Zm2.111-.632Z" transform="translate(-130.563 -33.106)" fill="#e3e3e3"/><path d="M165.232,7.714a4.893,4.893,0,0,0,.476.684l.421.507a3.753,3.753,0,0,1,.261.492,4.592,4.592,0,0,1,.334,1.135,11.459,11.459,0,0,1,.091,2.382c-.1,1.472-.24,2.546-.24,2.546a7.224,7.224,0,0,0,1.411-2.269,6.989,6.989,0,0,0,.406-1.266,6,6,0,0,0,.177-1.531,4.958,4.958,0,0,0-.285-1.733,5.751,5.751,0,0,0-.408-.863c-.081-.141-.19-.266-.285-.4L167.44,7.2l-.076-.1-.021-.027.054.06-.006-.01-.029-.037a3.661,3.661,0,0,1-.42-.548,2.421,2.421,0,0,1-.212-.442,4.928,4.928,0,0,1-.309-1.154,12.519,12.519,0,0,1-.071-2.4c.1-1.475.226-2.551.226-2.551a7.423,7.423,0,0,0-1.4,2.272,7.4,7.4,0,0,0-.6,2.783,5.01,5.01,0,0,0,.246,1.727A4.32,4.32,0,0,0,165.232,7.714Zm2.111-.633s-.025-.031,0,0Z" transform="translate(-159.935)" fill="#e3e3e3"/><path d="M207.243,42.465a4.948,4.948,0,0,0,.478.684l.421.507a3.849,3.849,0,0,1,.261.492,4.618,4.618,0,0,1,.334,1.135,11.624,11.624,0,0,1,.09,2.383c-.1,1.471-.239,2.546-.239,2.546A7.237,7.237,0,0,0,210,47.942a7.054,7.054,0,0,0,.405-1.266,5.992,5.992,0,0,0,.177-1.531,4.948,4.948,0,0,0-.285-1.732,5.709,5.709,0,0,0-.408-.864c-.082-.141-.19-.266-.285-.4l-.152-.194-.076-.1-.017-.025.052.06-.01-.013-.028-.037a3.6,3.6,0,0,1-.419-.548,2.268,2.268,0,0,1-.212-.442,4.855,4.855,0,0,1-.31-1.154,12.452,12.452,0,0,1-.071-2.4c.1-1.473.225-2.55.225-2.55a8.168,8.168,0,0,0-2.005,5.055,5.012,5.012,0,0,0,.245,1.727A4.34,4.34,0,0,0,207.243,42.465Zm2.114-.634Z" transform="translate(-196.226 -30.018)" fill="#e3e3e3"/></g></g></g></g></g></svg>