<svg xmlns="http://www.w3.org/2000/svg" width="19.3" height="22.348" viewBox="0 0 19.3 22.348"><g transform="translate(-31.85 0.15)"><g transform="translate(32)"><path d="M49.881,0H42.262A1.115,1.115,0,0,0,41.5.3a1.115,1.115,0,0,0-.762-.3H33.119A1.12,1.12,0,0,0,32,1.119v19.81a1.12,1.12,0,0,0,1.119,1.119h7.619a1.115,1.115,0,0,0,.762-.3,1.115,1.115,0,0,0,.762.3h7.619A1.12,1.12,0,0,0,51,20.929V1.119A1.12,1.12,0,0,0,49.881,0ZM41.143,1.524h-.4a.357.357,0,1,0,0,.714h.4V19.81h-.4a.357.357,0,1,0,0,.714h.4v.4a.405.405,0,0,1-.4.4H33.119a.405.405,0,0,1-.4-.4V1.119a.405.405,0,0,1,.4-.4h7.619a.405.405,0,0,1,.4.4Zm9.143,19.4a.405.405,0,0,1-.4.4H42.262a.405.405,0,0,1-.4-.4v-.4h.4a.357.357,0,1,0,0-.714h-.4V2.238h.4a.357.357,0,1,0,0-.714h-.4v-.4a.405.405,0,0,1,.4-.4h7.619a.405.405,0,0,1,.4.4Z" transform="translate(-32)" fill="#ff7474" stroke="#ff7474" stroke-width="0.3"/><path d="M261.5,56h-4.19a1.31,1.31,0,0,0,0,2.619h4.19a1.31,1.31,0,1,0,0-2.619Zm0,1.9h-4.19a.6.6,0,0,1,0-1.19h4.19a.6.6,0,0,1,0,1.19Z" transform="translate(-245.333 -53.333)" fill="#ff7474" stroke="#ff7474" stroke-width="0.3"/><path d="M276.929,128.714a.357.357,0,0,0,0-.714h-4.571a.357.357,0,1,0,0,.714Z" transform="translate(-260.571 -121.905)" fill="#ff7474" stroke="#ff7474" stroke-width="0.3"/><path d="M256,200.357a.357.357,0,0,0,.357.357h5.333a.357.357,0,0,0,0-.714h-5.333A.357.357,0,0,0,256,200.357Z" transform="translate(-245.333 -190.476)" fill="#ff7474" stroke="#ff7474" stroke-width="0.3"/><path d="M256.357,232.714h3.81a.357.357,0,0,0,0-.714h-3.81a.357.357,0,1,0,0,.714Z" transform="translate(-245.333 -220.952)" fill="#ff7474" stroke="#ff7474" stroke-width="0.3"/><path d="M369.119,232h-.762a.357.357,0,0,0,0,.714h.762a.357.357,0,1,0,0-.714Z" transform="translate(-352 -220.952)" fill="#ff7474" stroke="#ff7474" stroke-width="0.3"/><path d="M256.357,264.714h5.333a.357.357,0,0,0,0-.714h-5.333a.357.357,0,1,0,0,.714Z" transform="translate(-245.333 -251.429)" fill="#ff7474" stroke="#ff7474" stroke-width="0.3"/><path d="M256.357,296.714h3.81a.357.357,0,0,0,0-.714h-3.81a.357.357,0,1,0,0,.714Z" transform="translate(-245.333 -281.905)" fill="#ff7474" stroke="#ff7474" stroke-width="0.3"/><path d="M369.119,296h-.762a.357.357,0,1,0,0,.714h.762a.357.357,0,1,0,0-.714Z" transform="translate(-352 -281.905)" fill="#ff7474" stroke="#ff7474" stroke-width="0.3"/><path d="M256.357,328.714h5.333a.357.357,0,0,0,0-.714h-5.333a.357.357,0,1,0,0,.714Z" transform="translate(-245.333 -312.381)" fill="#ff7474" stroke="#ff7474" stroke-width="0.3"/><path d="M260.167,360h-3.81a.357.357,0,1,0,0,.714h3.81a.357.357,0,0,0,0-.714Z" transform="translate(-245.333 -342.857)" fill="#ff7474" stroke="#ff7474" stroke-width="0.3"/><path d="M369.119,360h-.762a.357.357,0,1,0,0,.714h.762a.357.357,0,1,0,0-.714Z" transform="translate(-352 -342.857)" fill="#ff7474" stroke="#ff7474" stroke-width="0.3"/><path d="M74.643,96a.357.357,0,0,0-.357.357v2.69h-.429v-2.69a.357.357,0,0,0-.714,0v2.69h-.429v-2.69a.357.357,0,1,0-.714,0v3.429a1.12,1.12,0,0,0,1.119,1.119h.024v8.024a.357.357,0,0,0,.714,0V100.9h.024A1.12,1.12,0,0,0,75,99.786V96.357A.357.357,0,0,0,74.643,96Zm-.357,3.786a.405.405,0,0,1-.4.4h-.762a.405.405,0,0,1-.4-.4v-.024h1.571Z" transform="translate(-70.095 -91.429)" fill="#ff7474" stroke="#ff7474" stroke-width="0.3"/><path d="M153.51,96.682a.757.757,0,0,0-1.51.075v12.171a.357.357,0,0,0,.714,0V105.1h.333a1.119,1.119,0,0,0,1.114-1.22Zm-.165,7.567a.4.4,0,0,1-.3.132h-.333V96.757a.043.043,0,0,1,.043-.043.042.042,0,0,1,.042.035l.651,7.19A.4.4,0,0,1,153.346,104.249Z" transform="translate(-146.286 -91.429)" fill="#ff7474" stroke="#ff7474" stroke-width="0.3"/></g></g></svg>