<svg xmlns="http://www.w3.org/2000/svg" width="16.767" height="26.301" viewBox="0 0 16.767 26.301"><g transform="translate(-9.384 0.15)"><path d="M202.034,0H189.9a2.169,2.169,0,0,0-2.167,2.167V5.2a.433.433,0,1,0,.867,0V4.333h14.734V21.667H188.6V20.8a.433.433,0,0,0-.867,0v3.033A2.169,2.169,0,0,0,189.9,26h12.134a2.169,2.169,0,0,0,2.167-2.167V2.167A2.169,2.169,0,0,0,202.034,0Zm1.3,23.834a1.3,1.3,0,0,1-1.3,1.3H189.9a1.3,1.3,0,0,1-1.3-1.3v-1.3h14.734Zm0-20.367H188.6v-1.3a1.3,1.3,0,0,1,1.3-1.3h12.134a1.3,1.3,0,0,1,1.3,1.3Z" transform="translate(-178.199)" fill="#ff7474" stroke="#ff7474" stroke-width="0.3"/><path d="M291,34.133h-.433a.433.433,0,1,0,0,.867H291a.433.433,0,0,0,0-.867Z" transform="translate(-275.4 -32.4)" fill="#ff7474" stroke="#ff7474" stroke-width="0.3"/><path d="M336.268,34.133h-3.033a.433.433,0,0,0,0,.867h3.033a.433.433,0,1,0,0-.867Z" transform="translate(-315.9 -32.4)" fill="#ff7474" stroke="#ff7474" stroke-width="0.3"/><path d="M324.7,461.668h1.733a.433.433,0,1,0,0-.867H324.7a.433.433,0,1,0,0,.867Z" transform="translate(-307.8 -437.4)" fill="#ff7474" stroke="#ff7474" stroke-width="0.3"/><path d="M249.33,125.293a1.718,1.718,0,0,0-.01-2.99,3.033,3.033,0,0,0-3.023-2.836H242.83a3.033,3.033,0,0,0-3.023,2.836,1.718,1.718,0,0,0-.01,2.99V126.4a1.733,1.733,0,0,0,1.733,1.733H247.6a1.733,1.733,0,0,0,1.733-1.733Zm-6.5-4.959h.6l-.12.24a.434.434,0,1,0,.776.387l.313-.627h.764l-.12.24a.434.434,0,1,0,.776.387l.313-.627h.165a2.17,2.17,0,0,1,2.123,1.733h-7.714A2.17,2.17,0,0,1,242.83,120.334Zm5.634,6.067a.867.867,0,0,1-.867.867H241.53a.867.867,0,0,1-.867-.867v-.867h7.8v.867Zm0-1.733h-7.8a.867.867,0,1,1,0-1.733h7.8a.867.867,0,0,1,0,1.733Z" transform="translate(-226.796 -113.4)" fill="#ff7474" stroke="#ff7474" stroke-width="0.3"/><path d="M271.468,315.733h-5.2a1.733,1.733,0,0,0,0,3.467h5.2a1.733,1.733,0,0,0,0-3.467Zm0,2.6h-5.2a.867.867,0,0,1,0-1.733h5.2a.867.867,0,0,1,0,1.733Z" transform="translate(-251.1 -299.699)" fill="#ff7474" stroke="#ff7474" stroke-width="0.3"/><path d="M187.733,162.567v2.6a.433.433,0,1,0,.867,0v-2.6a.433.433,0,1,0-.867,0Z" transform="translate(-178.199 -153.9)" fill="#ff7474" stroke="#ff7474" stroke-width="0.3"/><path d="M187.733,282.033v2.6a.433.433,0,1,0,.867,0v-2.6a.433.433,0,1,0-.867,0Z" transform="translate(-178.199 -267.299)" fill="#ff7474" stroke="#ff7474" stroke-width="0.3"/></g></svg>