<svg xmlns="http://www.w3.org/2000/svg" width="25.456" height="25.456" viewBox="0 0 25.456 25.456"><g transform="translate(-0.352 13.08) rotate(-45)"><path d="M19.319,20.845a.3.3,0,0,0,0,.426.308.308,0,0,0,.214.087.3.3,0,0,0,.217-.09.3.3,0,0,0,0-.423A.311.311,0,0,0,19.319,20.845Z" transform="translate(-13.018 -14.53)" fill="#ff9200"/><path d="M16.465,46.355a.3.3,0,0,0,0,.426.309.309,0,0,0,.43,0,.3.3,0,0,0,0-.426A.307.307,0,0,0,16.465,46.355Z" transform="translate(-11.034 -32.387)" fill="#ff9200"/><path d="M16.5,23.685a.3.3,0,0,0,0,.426.309.309,0,0,0,.433,0,.3.3,0,0,0,0-.423A.307.307,0,0,0,16.5,23.685Z" transform="translate(-11.061 -16.518)" fill="#ff9200"/><path d="M19.3,49.185a.3.3,0,0,0,0,.426.309.309,0,0,0,.43,0,.3.3,0,0,0,0-.426A.307.307,0,0,0,19.3,49.185Z" transform="translate(-13.001 -34.368)" fill="#ff9200"/><path d="M24.924,52.068a.3.3,0,0,0,.006.423.314.314,0,0,0,.214.087.3.3,0,0,0,.22-.093.3.3,0,0,0-.006-.423A.312.312,0,0,0,24.924,52.068Z" transform="translate(-16.915 -36.384)" fill="#ff9200"/><path d="M22.136,18a.3.3,0,0,0,0,.426.306.306,0,0,0,.43,0,.293.293,0,0,0,0-.423A.307.307,0,0,0,22.136,18Z" transform="translate(-14.975 -12.542)" fill="#ff9200"/><path d="M22.125,52.015a.3.3,0,0,0,0,.426.308.308,0,0,0,.214.087.315.315,0,0,0,.217-.087.3.3,0,0,0,0-.426A.307.307,0,0,0,22.125,52.015Z" transform="translate(-14.967 -36.349)" fill="#ff9200"/><path d="M13.686,26.525a.3.3,0,0,0,0,.426.306.306,0,0,0,.43,0,.293.293,0,0,0,0-.423A.308.308,0,0,0,13.686,26.525Z" transform="translate(-9.103 -18.506)" fill="#ff9200"/><path d="M7.975,37.875a.3.3,0,0,0,0,.423.306.306,0,0,0,.433,0,.3.3,0,0,0,0-.423A.311.311,0,0,0,7.975,37.875Z" transform="translate(-5.134 -26.45)" fill="#ff9200"/><path d="M8.055,32.205a.3.3,0,0,0,0,.426.317.317,0,0,0,.217.087.3.3,0,0,0,.214-.09.3.3,0,0,0,0-.423A.307.307,0,0,0,8.055,32.205Z" transform="translate(-5.189 -22.482)" fill="#ff9200"/><path d="M5.235,35.045a.3.3,0,0,0,0,.426.317.317,0,0,0,.217.087.312.312,0,0,0,.217-.09.3.3,0,0,0,0-.423A.307.307,0,0,0,5.235,35.045Z" transform="translate(-3.23 -24.469)" fill="#ff9200"/><path d="M24.955,15.165a.3.3,0,0,0,0,.426.309.309,0,0,0,.433,0,.3.3,0,0,0,0-.423A.307.307,0,0,0,24.955,15.165Z" transform="translate(-16.933 -10.554)" fill="#ff9200"/><path d="M10.8,40.705a.3.3,0,0,0,0,.423.3.3,0,0,0,.217.087.307.307,0,0,0,.217-.087.3.3,0,0,0,0-.423A.311.311,0,0,0,10.8,40.705Z" transform="translate(-7.1 -28.432)" fill="#ff9200"/><path d="M13.635,43.535a.3.3,0,0,0,0,.423.3.3,0,0,0,.217.087.3.3,0,0,0,.214-.51A.307.307,0,0,0,13.635,43.535Z" transform="translate(-9.067 -30.413)" fill="#ff9200"/><path d="M10.868,29.365a.3.3,0,0,0,0,.426.309.309,0,0,0,.214.087.3.3,0,0,0,.217-.09.293.293,0,0,0,0-.423A.308.308,0,0,0,10.868,29.365Z" transform="translate(-7.145 -20.494)" fill="#ff9200"/><path d="M30.509,46.335a.293.293,0,0,0,.006.423.3.3,0,0,0,.211.084.313.313,0,0,0,.22-.09.3.3,0,0,0-.006-.423A.3.3,0,0,0,30.509,46.335Z" transform="translate(-20.794 -32.37)" fill="#ff9200"/><path d="M44.459,32.005a.293.293,0,0,0,.006.423.306.306,0,0,0,.43,0A.3.3,0,0,0,44.889,32,.3.3,0,0,0,44.459,32.005Z" transform="translate(-30.489 -22.339)" fill="#ff9200"/><path d="M38.879,37.735a.292.292,0,0,0,.006.423.3.3,0,0,0,.211.087.312.312,0,0,0,.22-.09.3.3,0,0,0-.006-.426A.3.3,0,0,0,38.879,37.735Z" transform="translate(-26.611 -26.35)" fill="#ff9200"/><path d="M41.669,34.875a.293.293,0,0,0,.006.423.3.3,0,0,0,.211.084.3.3,0,0,0,.22-.09.293.293,0,0,0-.006-.423A.3.3,0,0,0,41.669,34.875Z" transform="translate(-28.55 -24.348)" fill="#ff9200"/><path d="M47.249,29.141a.3.3,0,0,0,.006.426.309.309,0,0,0,.43-.006.3.3,0,0,0-.006-.426A.31.31,0,0,0,47.249,29.141Z" transform="translate(-32.427 -20.336)" fill="#ff9200"/><ellipse cx="0.305" cy="0.3" rx="0.305" ry="0.3" transform="translate(15.447 5.4)" fill="#ff9200"/><path d="M27.719,49.2a.3.3,0,0,0,.217.51.312.312,0,0,0,.22-.09.3.3,0,0,0-.006-.423A.308.308,0,0,0,27.719,49.2Z" transform="translate(-18.856 -34.378)" fill="#ff9200"/><ellipse cx="0.305" cy="0.3" rx="0.305" ry="0.3" transform="translate(15.447 7.8)" fill="#ff9200"/><ellipse cx="0.305" cy="0.3" rx="0.305" ry="0.3" transform="translate(15.447 6.6)" fill="#ff9200"/><path d="M33.3,43.471a.3.3,0,0,0,.217.51.312.312,0,0,0,.22-.09.3.3,0,0,0-.006-.426A.31.31,0,0,0,33.3,43.471Z" transform="translate(-22.734 -30.366)" fill="#ff9200"/><path d="M38.528,8.3a.305.305,0,1,0-.305.3A.3.3,0,0,0,38.528,8.3Z" transform="translate(-26.004 -5.6)" fill="#ff9200"/><path d="M27.768,12.325a.3.3,0,0,0,0,.426.309.309,0,0,0,.214.087.3.3,0,0,0,.217-.09.3.3,0,0,0,0-.423A.311.311,0,0,0,27.768,12.325Z" transform="translate(-18.89 -8.566)" fill="#ff9200"/><path d="M30.587,9.485a.3.3,0,0,0,0,.426.306.306,0,0,0,.43,0,.293.293,0,0,0,0-.423A.308.308,0,0,0,30.587,9.485Z" transform="translate(-20.847 -6.578)" fill="#ff9200"/><path d="M34.223,8a.3.3,0,1,0,.305.3A.3.3,0,0,0,34.223,8Z" transform="translate(-23.224 -5.6)" fill="#ff9200"/><path d="M36.09,40.605a.293.293,0,0,0,.006.423.3.3,0,0,0,.211.084.312.312,0,0,0,.22-.09.3.3,0,0,0-.006-.423A.305.305,0,0,0,36.09,40.605Z" transform="translate(-24.673 -28.359)" fill="#ff9200"/><path d="M18.409.088a.308.308,0,0,0-.431,0L16.846,1.2h-7.1L.813,10.054a1.046,1.046,0,0,0,0,1.5l6.244,6.14a1.092,1.092,0,0,0,1.525,0l8.7-8.782V1.624L18.408.512A.3.3,0,0,0,18.409.088ZM16.668,8.662l-8.519,8.6a.473.473,0,0,1-.66,0l-6.244-6.14a.453.453,0,0,1,0-.65L10,1.8h6.239L14.762,3.25a1.534,1.534,0,0,0-.84-.25,1.5,1.5,0,1,0,1.525,1.5,1.473,1.473,0,0,0-.254-.826l1.474-1.45ZM14.837,4.5a.921.921,0,1,1-.523-.81l-.608.6a.3.3,0,0,0,0,.424.309.309,0,0,0,.431,0l.608-.6A.877.877,0,0,1,14.837,4.5Z" transform="translate(0)" fill="#ff9200"/></g></svg>