<svg xmlns="http://www.w3.org/2000/svg" width="32" height="32" viewBox="0 0 32 32"><g transform="translate(-55 -318)"><circle cx="16" cy="16" r="16" transform="translate(55 318)" fill="#ff7474"/><path d="M19.125,8.333h-1.08v-2.1A5.324,5.324,0,0,0,12.643,1a5.324,5.324,0,0,0-5.4,5.238v2.1H6.161A2.135,2.135,0,0,0,4,10.429V20.9A2.135,2.135,0,0,0,6.161,23H19.125a2.135,2.135,0,0,0,2.161-2.1V10.429A2.135,2.135,0,0,0,19.125,8.333Zm-6.482,9.429a2.1,2.1,0,1,1,2.161-2.1A2.135,2.135,0,0,1,12.643,17.762Zm3.349-9.429h-6.7v-2.1a3.351,3.351,0,0,1,6.7,0Z" transform="translate(58 322)" fill="#fff"/></g></svg>