<svg xmlns="http://www.w3.org/2000/svg" width="26.708" height="25.543" viewBox="0 0 26.708 25.543"><g transform="translate(0 -9.21)" opacity="0.87"><path d="M116.705,121.224v-.3a3.306,3.306,0,0,0,1.062-2.529,1.6,1.6,0,0,0-.658-1.113l-.152-.152h-.2a7.123,7.123,0,0,1-1.012.051,11.026,11.026,0,0,1-5.361-1.416l-.3-.152-.253.253a7.146,7.146,0,0,1-4.249,1.265h-.2l-.152.1a1.82,1.82,0,0,0-.658,1.163,3.306,3.306,0,0,0,1.062,2.529,7.039,7.039,0,0,0,1.72,4.552,5.067,5.067,0,0,0,3.692,1.416h.253a4.989,4.989,0,0,0,3.692-1.416,6.287,6.287,0,0,0,1.517-2.934l.253-1.113-.051.051Zm-4.451,3.541a.961.961,0,1,1,.658-1.669l.253.253h0l.051.354v.1a.93.93,0,0,1-.961.961c.051.051,0,.051,0,0Z" transform="translate(-97.939 -99.673)" fill="#fff"/><g transform="translate(7.487 12.194)"><path d="M128.785,61.771a10.855,10.855,0,0,1-5.716-1.619,6.54,6.54,0,0,1-4.1,1.568l-.556.051.051-.556c.3-4.2,3.136-4.805,4.755-4.805a3.113,3.113,0,0,1,.961.1h0a6.2,6.2,0,0,1,.961-.1c1.669,0,4.451.658,4.755,4.906l.051.506-.506.051a1.494,1.494,0,0,0-.658-.1Z" transform="translate(-118.416 -56.41)" fill="#2ac6be"/><circle cx="0.961" cy="0.961" r="0.961" transform="translate(5.867 11.026)" fill="#2ac6be"/></g><g transform="translate(0.356 27.368)"><path d="M5.616,303.34l.051-.556c.4-4.046,6.373-5.716,8.9-6.221l.607-.152v1.517c0,.86,1.214,1.568,2.832,1.669l.506.051v3.692Z" transform="translate(-5.616 -296.41)" fill="#b7f3f9"/><path d="M209.616,303.34v-3.692l.455-.051c1.619-.1,2.833-.809,2.833-1.669V296.41l.607.152c2.529.506,8.5,2.175,8.9,6.221l.051.556Z" transform="translate(-196.718 -296.41)" fill="#b7f3f9"/></g><path d="M160.154,284.608c-1.821,0-3.338-.759-3.338-1.669V280.41l.708.354a5.877,5.877,0,0,0,2.478.506h.253a6.04,6.04,0,0,0,2.478-.506l.708-.354v2.529C163.493,283.849,161.975,284.608,160.154,284.608Z" transform="translate(-146.901 -254.053)" fill="#fff"/><path d="M17.1,26.964v-.455a2.533,2.533,0,0,0,.4-.354,7.288,7.288,0,0,0,1.77-3.844A3.39,3.39,0,0,0,21.447,21c.759-1.012.809-2.529.2-4.4a.5.5,0,0,0-.2-.253l-.253-.2a6.924,6.924,0,0,0-1.619-4.6C18.21,10.019,16.137,9.21,13.355,9.21h0a8.134,8.134,0,0,0-6.221,2.276,6.673,6.673,0,0,0-1.619,4.6l-.3.2a.5.5,0,0,0-.2.253c-.607,1.871-.556,3.338.2,4.4A3.519,3.519,0,0,0,7.386,22.26,6.6,6.6,0,0,0,9.156,26.1a2.891,2.891,0,0,0,.4.354v.455C7.639,27.267-.1,29.088,0,34.247a.478.478,0,0,0,.506.506H26.2a.478.478,0,0,0,.506-.506C26.758,29.139,19.02,27.318,17.1,26.964ZM5.97,20.388a3.891,3.891,0,0,1-.1-3.338l.354-.253a.44.44,0,0,0,.2-.455,5.887,5.887,0,0,1,1.366-4.148q1.745-1.973,5.463-1.973t5.463,1.973a5.887,5.887,0,0,1,1.366,4.148.493.493,0,0,0,.2.455l.354.253a3.891,3.891,0,0,1-.1,3.338,1.987,1.987,0,0,1-1.062.759,3.331,3.331,0,0,0,.809-2.529,2.505,2.505,0,0,0-.809-1.416c-.2-5.058-3.743-5.614-5.311-5.614a6.121,6.121,0,0,0-.961.051,6.121,6.121,0,0,0-.961-.051c-1.517,0-5.058.556-5.311,5.614a2.251,2.251,0,0,0-.809,1.416,3.331,3.331,0,0,0,.809,2.529,1.762,1.762,0,0,1-.961-.759ZM18.514,17a10.662,10.662,0,0,1-6.07-1.517.53.53,0,0,0-.658.051,6.309,6.309,0,0,1-3.743,1.416c.253-3.591,2.428-4.35,4.249-4.35a4.907,4.907,0,0,1,.86.051h.2a4.907,4.907,0,0,1,.86-.051c1.821,0,4,.809,4.3,4.4ZM8.246,21.248a.546.546,0,0,0-.152-.354,2.74,2.74,0,0,1-.91-2.124,1.309,1.309,0,0,1,.455-.86,7.868,7.868,0,0,0,4.552-1.416,11.532,11.532,0,0,0,5.614,1.517,7.832,7.832,0,0,0,1.062-.051,1.314,1.314,0,0,1,.455.809,2.933,2.933,0,0,1-.91,2.124.459.459,0,0,0-.152.354V21.5l-2.934,1.568a1.467,1.467,0,1,0,.051,2.074,1.412,1.412,0,0,0,.4-1.012v-.152l2.327-1.265A5.442,5.442,0,0,1,16.743,25.4a4.609,4.609,0,0,1-3.338,1.265h-.253A4.532,4.532,0,0,1,9.814,25.4a6.1,6.1,0,0,1-1.568-4.148Zm6.525,2.934a.455.455,0,1,1-.455-.455h0A.453.453,0,0,1,14.771,24.182Zm-2.023,9.61H.912c.4-3.794,6.575-5.361,8.5-5.817v.91c0,1.163,1.416,2.023,3.338,2.175Zm-2.327-4.906v-1.72a5.564,5.564,0,0,0,2.681.556h.253a6.223,6.223,0,0,0,2.681-.556v1.72c0,.506-1.113,1.163-2.832,1.163s-2.782-.708-2.782-1.163Zm3.338,4.906V31.061c1.922-.152,3.338-1.012,3.338-2.175v-.91c1.922.4,8.093,1.973,8.5,5.817Z" transform="translate(0)" fill="#082b33"/></g></svg>