<svg xmlns="http://www.w3.org/2000/svg" width="208.258" height="215.384" viewBox="0 0 208.258 215.384"><g transform="translate(-1699.664 -922.616)" opacity="0.54"><g transform="translate(1699.664 922.616)"><path d="M63.933,34.559l4.219,4.351s6.563,8.218,7.032,14.5a8.325,8.325,0,0,1-.937,2.417s4.688,5.317,6.094,6.768c1.406.967,1.875,3.384.937,4.351A23.478,23.478,0,0,1,78,69.364s2.813,4.834,0,5.8c0,0,1.875.484,1.406,2.9s-.469,2.9,0,4.351,0,6.768-2.813,7.251a96.939,96.939,0,0,1-10.313.484s-3.75,9.185-4.688,10.635l-.937,1.45L34.4,89.185l1.406-36.74,15.47-15.469Z" transform="translate(-19.281 -27.043)" fill="#ffd15c"/><path d="M18.907,79.15l-.937-.484S17.5,74.8,14.22,66.581c-3.751-7.734-10.313-17.4-6.094-31.422S37.659,16.789,45.16,18.24c7.5.967,12.188,8.218,7.032,11.6,0,0-13.595-.484-14.064,3.867,0,4.351,5.156,3.384,4.219,7.251S37.19,45.794,38.6,51.111L40,56.429l-2.813,1.45s-4.219-7.735-9.376-7.735c-5.625.484-3.75,12.569-4.688,17.886C22.189,72.865,18.907,79.15,18.907,79.15Z" transform="translate(-3.789 -17.975)" fill="#425a6b"/><path d="M9.507,0c5.294.073,9.621,2.672,9.665,5.806s-4.213,5.616-9.507,5.543S.044,8.679,0,5.545,4.213-.071,9.507,0Z" transform="translate(26.14 50.465) rotate(-122.059)" fill="#ffd15c"/><path d="M75.552,145.429c1.406-2.9,2.813-6.768,2.813-6.768-11.72-4.834-15-7.251-21.564-14.5C56.8,124.159,62.894,137.211,75.552,145.429Z" transform="translate(-31.837 -76.036)" fill="#f5b54c"/><path d="M62.351,160.778l-2.813,12.085L29.067,155.944,30,148.693c1.406,0,10.782,2.9,16.876,4.834C52.506,154.977,57.663,157.878,62.351,160.778Z" transform="translate(-16.292 -89.451)" fill="#f3f3f3"/><path d="M247.9,296.959s-1.406.484-1.875,8.218c-.937,7.735-4.688,49.792-4.688,49.792l30,2.9,3.75-56.559Z" transform="translate(-135.27 -170.523)" fill="#ced6e0"/><path d="M10.43,177.764S1.054,189.849.586,202.9c-.469,12.569-1.406,25.621.937,31.905S15.118,281.7,15.587,291.85c.469,10.635-.937,28.521-.937,28.521H90.592s-2.344-53.659-10.313-69.128-5.625-25.138-15.47-41.09C54.964,194.684,44.651,185.5,38.088,182.6,31.525,180.181,15.118,175.347,10.43,177.764Z" transform="translate(0 -104.987)" fill="#344a5e"/><path d="M25.842,162.559s-1.406,5.317-1.875,6.768c-.937.967-.937,1.45.469,1.45s7.5.967,15.47,3.867,17.345,6.768,21.1,9.668,16.407,18.37,20.158,27.071,13.126,41.573,13.126,41.573S89.128,219.6,76.94,200.264s-15-20.3-20.626-24.654C50.219,171.26,36.155,162.559,25.842,162.559Z" transform="translate(-13.067 -97.033)" fill="#425a6b"/><path d="M349.9,308.76s-1.875,7.735-2.813,7.735l-15.47.484-2.813-11.6,6.563-.967h6.094S349.9,303.926,349.9,308.76Z" transform="translate(-184.297 -174.59)" fill="#ffd15c"/><g transform="translate(175.871 107.897)"><path d="M404.434,266.64s0-3.867.938-4.834,2.813-2.9,3.282-4.351c.469-.967-4.688-1.45-5.625,0-1.406,1.45-1.406,4.834-1.406,4.834S396.934,267.123,404.434,266.64Z" transform="translate(-400.175 -256.319)" fill="#ced6e0"/><path d="M409.867,265.89s6.094-3.384,7.5-4.834a30.551,30.551,0,0,1,7.032-4.834c1.406-.484,4.219,0,3.75,2.417,0,2.417-1.406,2.417-1.406,2.417Z" transform="translate(-405.607 -256.053)" fill="#ced6e0"/></g><path d="M370.727,261.975c0-.484-.469-4.351,2.344-5.8,2.344-1.45,5.625.484,5.625,2.417.469,1.934.469,4.834,1.406,5.8.469.967,5.625,0,7.032-.967,1.875-.967,7.032-3.384,8.907-4.351s6.563-3.384,8.438-3.867c1.406-.484,4.219.484,4.219,1.934,0,1.934-3.282,2.9-5.156,3.384s-6.094,4.351-7.969,5.8c-1.875.967-5.625,2.417-6.563,3.867-.937.967-9.375,9.185-11.251,10.635s-12.657,9.185-14.533,9.668c0,0,.937-.483.469-2.9-.937-4.351-6.094-9.185-6.094-9.668l3.282-3.384c1.406-.967,3.75-2.417,4.688-3.867C366.508,268.742,370.727,261.975,370.727,261.975Z" transform="translate(-200.44 -147.625)" fill="#e8eae8"/><g transform="translate(14.216 84.312)"><path d="M170.6,247.586s1.875,1.934,1.875,6.284-1.875,20.787-1.875,20.787-37.5,1.934-47.347,1.934c-9.376,0-17.345.967-25.314-1.934s-35.628-14.019-40.784-15.469-20.158-8.7-23.439-23.2,0-23.2,2.813-26.588,11.251-7.735,21.564-3.867c10.313,4.351,16.876,12.569,17.814,15.953,0,0,3.75,1.934,3.75,4.351,0,0,1.875-.484,4.219,1.45s4.219,4.351,6.094,5.8,12.188,7.251,15,8.7,21.1,5.8,31.877,5.317C146.7,248.069,170.6,247.586,170.6,247.586Z" transform="translate(-32.347 -204.012)" fill="#ff9200"/></g><path d="M256.267,296.959a39.83,39.83,0,0,1,1.406,7.251v50.275l34.221.483V306.144s0-5.8-2.813-7.735Z" transform="translate(-143.641 -170.523)" fill="#e8eae8"/></g></g></svg>